<?xml version="1.0" standalone="no"?>
<!DOCTYPE svg PUBLIC "-//W3C//DTD SVG 20010904//EN"
 "http://www.w3.org/TR/2001/REC-SVG-20010904/DTD/svg10.dtd">
<svg version="1.0" xmlns="http://www.w3.org/2000/svg"
 width="196.000000pt" height="178.000000pt" viewBox="0 0 196.000000 178.000000"
 preserveAspectRatio="xMidYMid meet">
<metadata>
Created by potrace 1.16, written by Peter Selinger 2001-2019
</metadata>
<g transform="translate(0.000000,178.000000) scale(0.100000,-0.100000)"
fill="#000000" stroke="none">
<path d="M729 1776 c-2 -2 -22 -6 -44 -9 -22 -2 -57 -11 -77 -20 -21 -9 -38
-14 -38 -11 0 3 -20 -6 -45 -20 -25 -15 -45 -24 -45 -20 0 6 -88 -43 -106 -60
-7 -6 -26 -22 -44 -36 -42 -32 -49 -40 -85 -85 -16 -20 -37 -45 -46 -54 -52
-51 -160 -289 -175 -386 -3 -16 -9 -41 -13 -55 -8 -26 -8 -413 0 -440 16 -52
43 -127 48 -135 3 -5 6 -15 7 -22 5 -33 80 -146 133 -199 55 -57 203 -154 233
-154 8 0 22 -6 33 -14 11 -7 22 -14 25 -13 3 0 32 -8 65 -18 65 -18 121 -21
200 -10 66 10 121 10 170 -1 66 -15 181 -10 260 9 6 2 44 21 85 42 41 22 78
39 82 37 5 -1 8 2 8 7 0 5 11 12 25 15 14 4 25 11 25 16 0 5 12 16 28 24 31
16 79 62 114 108 13 17 31 39 41 49 9 11 17 24 17 30 0 5 10 29 22 52 12 23
25 49 28 57 9 19 24 83 22 91 0 4 21 18 48 33 126 69 189 163 206 311 4 27 12
53 18 58 8 5 8 9 -1 15 -7 4 -14 32 -17 62 -5 59 -27 138 -52 183 -8 15 -17
36 -19 46 -2 10 -15 37 -29 60 -14 22 -26 44 -26 49 0 4 -35 42 -79 85 -106
103 -175 137 -275 133 -39 -2 -80 -6 -91 -10 -15 -5 -33 6 -72 43 -28 27 -54
47 -57 43 -3 -3 -6 0 -6 6 0 11 -127 74 -175 86 -16 5 -39 10 -50 13 -24 7
-270 14 -276 9z"/>
</g>
</svg>
