<?xml version="1.0" standalone="no"?>
<!DOCTYPE svg PUBLIC "-//W3C//DTD SVG 20010904//EN"
 "http://www.w3.org/TR/2001/REC-SVG-20010904/DTD/svg10.dtd">
<svg version="1.0" xmlns="http://www.w3.org/2000/svg"
 width="67.000000pt" height="111.000000pt" viewBox="0 0 67.000000 111.000000"
 preserveAspectRatio="xMidYMid meet">
<metadata>
Created by potrace 1.16, written by Peter Selinger 2001-2019
</metadata>
<g transform="translate(0.000000,111.000000) scale(0.100000,-0.100000)"
fill="#000000" stroke="none">
<path d="M144 1091 c-35 -22 -82 -92 -120 -183 -26 -61 -26 -67 -21 -218 3
-85 10 -182 17 -215 43 -203 97 -373 134 -414 47 -53 143 -75 217 -49 93 31
233 154 265 232 11 25 22 46 27 46 4 0 7 32 7 70 0 40 -4 70 -10 70 -5 0 -10
7 -10 15 0 21 -58 201 -82 255 -112 251 -182 356 -262 394 -46 22 -123 21
-162 -3z"/>
</g>
</svg>
