<?xml version="1.0" standalone="no"?>
<!DOCTYPE svg PUBLIC "-//W3C//DTD SVG 20010904//EN"
 "http://www.w3.org/TR/2001/REC-SVG-20010904/DTD/svg10.dtd">
<svg version="1.0" xmlns="http://www.w3.org/2000/svg"
 width="388.000000pt" height="633.000000pt" viewBox="0 0 388.000000 633.000000"
 preserveAspectRatio="xMidYMid meet">
<metadata>
Created by potrace 1.16, written by Peter Selinger 2001-2019
</metadata>
<g transform="translate(0.000000,633.000000) scale(0.100000,-0.100000)"
fill="#000000" stroke="none">
<path d="M1890 6319 c-176 -14 -416 -91 -564 -182 -38 -23 -89 -53 -113 -67
-356 -204 -662 -462 -837 -705 -80 -112 -225 -383 -270 -504 -74 -204 -70
-178 -74 -511 -2 -168 -4 -325 -5 -350 -1 -40 24 -381 38 -515 18 -177 37
-339 46 -391 6 -33 8 -101 5 -150 -3 -49 -9 -163 -15 -254 -5 -91 -16 -208
-24 -260 -9 -52 -21 -174 -27 -270 -15 -266 -17 -278 -35 -385 -24 -145 -16
-356 18 -486 43 -158 94 -301 143 -400 148 -299 359 -526 646 -698 109 -65
138 -77 262 -108 190 -47 520 -89 621 -78 193 19 278 42 427 116 217 106 404
240 493 351 68 86 207 292 241 361 38 74 82 214 110 348 27 133 32 192 22 254
-9 48 -72 227 -92 258 -8 12 -28 67 -46 121 -24 77 -33 130 -41 235 -12 166
-18 193 -69 265 -22 31 -40 59 -40 62 0 3 18 36 40 73 62 105 102 229 107 336
6 116 15 141 56 149 144 27 472 322 578 520 43 78 140 287 162 346 32 86 47
176 58 340 11 174 20 217 99 460 24 73 43 155 47 198 3 39 10 72 14 72 12 0
12 167 1 172 -5 2 -15 15 -23 30 -98 188 -285 473 -395 603 -113 133 -336 355
-364 362 -14 3 -45 20 -70 38 -64 47 -156 90 -284 137 -108 39 -149 49 -361
88 -125 23 -335 31 -485 19z"/>
</g>
</svg>
