<?xml version="1.0" standalone="no"?>
<!DOCTYPE svg PUBLIC "-//W3C//DTD SVG 20010904//EN"
 "http://www.w3.org/TR/2001/REC-SVG-20010904/DTD/svg10.dtd">
<svg version="1.0" xmlns="http://www.w3.org/2000/svg"
 width="401.000000pt" height="581.000000pt" viewBox="0 0 401.000000 581.000000"
 preserveAspectRatio="xMidYMid meet">
<metadata>
Created by potrace 1.16, written by Peter Selinger 2001-2019
</metadata>
<g transform="translate(0.000000,581.000000) scale(0.100000,-0.100000)"
fill="#000000" stroke="none">
<path d="M1919 5800 c-221 -12 -357 -45 -534 -130 -174 -84 -343 -225 -456
-380 -93 -127 -270 -499 -303 -635 -9 -38 -25 -97 -36 -130 -28 -92 -57 -228
-75 -350 -28 -197 9 -517 80 -688 88 -208 100 -294 100 -702 0 -109 -2 -124
-24 -160 -41 -68 -101 -124 -216 -201 -60 -40 -151 -113 -201 -161 -77 -74
-98 -101 -133 -174 -93 -193 -113 -304 -113 -624 0 -270 23 -358 156 -593 72
-127 109 -171 240 -289 329 -296 538 -409 931 -505 175 -43 505 -83 600 -73
188 19 252 35 400 102 337 154 419 205 585 361 358 339 506 613 486 901 -9
128 -34 277 -55 326 -9 22 -23 60 -31 85 -8 25 -36 85 -62 135 -26 49 -79 155
-118 234 -69 140 -105 194 -182 277 -41 43 -41 44 -22 149 4 17 7 39 7 49 1
10 12 31 24 45 49 55 124 176 134 215 34 128 44 150 74 167 17 10 84 25 150
34 128 17 275 53 351 85 68 29 154 101 206 172 57 79 71 107 93 185 24 85 17
160 -24 251 -48 108 -62 194 -64 372 l-1 155 52 153 c29 84 52 159 52 167 0 8
5 15 10 15 12 0 14 237 2 242 -5 2 -21 36 -36 76 -45 118 -204 321 -325 414
-71 55 -261 177 -330 212 -49 25 -118 52 -285 111 -165 59 -586 116 -831 113
-77 0 -201 -4 -276 -8z"/>
</g>
</svg>
