<?xml version="1.0" standalone="no"?>
<!DOCTYPE svg PUBLIC "-//W3C//DTD SVG 20010904//EN"
 "http://www.w3.org/TR/2001/REC-SVG-20010904/DTD/svg10.dtd">
<svg version="1.0" xmlns="http://www.w3.org/2000/svg"
 width="420.000000pt" height="632.000000pt" viewBox="0 0 420.000000 632.000000"
 preserveAspectRatio="xMidYMid meet">
<metadata>
Created by potrace 1.16, written by Peter Selinger 2001-2019
</metadata>
<g transform="translate(0.000000,632.000000) scale(0.100000,-0.100000)"
fill="#000000" stroke="none">
<path d="M2135 6309 c-114 -7 -230 -26 -285 -47 -35 -13 -261 -140 -345 -193
-497 -313 -807 -603 -954 -889 -140 -272 -227 -740 -192 -1032 10 -85 8 -123
-14 -320 -26 -236 -35 -271 -110 -433 -85 -183 -115 -289 -180 -621 -51 -267
-57 -362 -53 -870 4 -424 5 -454 26 -531 12 -44 33 -105 47 -135 14 -29 25
-63 25 -74 0 -22 124 -214 188 -291 80 -96 374 -413 428 -461 31 -28 87 -67
123 -87 36 -20 93 -53 126 -74 164 -102 399 -178 665 -215 228 -33 313 -38
411 -26 52 6 140 15 197 21 124 11 227 31 325 64 39 13 108 33 153 44 202 49
388 134 534 241 52 39 112 81 132 95 83 56 281 266 389 415 51 70 103 179 169
356 75 198 111 351 130 544 6 63 15 144 20 180 15 102 12 494 -4 617 -8 59
-18 140 -21 178 -8 88 -36 207 -71 305 -80 228 -76 210 -58 239 9 14 26 36 37
49 60 66 152 246 174 341 19 83 33 121 44 121 5 0 9 41 9 90 0 50 -4 90 -8 90
-5 0 -14 66 -21 148 -6 81 -17 196 -22 256 -8 81 -8 148 1 255 15 183 9 389
-14 506 -10 50 -20 99 -22 110 -17 96 -330 479 -521 637 -41 35 -91 77 -110
94 -19 16 -100 67 -181 112 -131 72 -165 86 -311 127 -94 27 -213 52 -279 61
-123 15 -372 16 -577 3z"/>
</g>
</svg>
