<?xml version="1.0" standalone="no"?>
<!DOCTYPE svg PUBLIC "-//W3C//DTD SVG 20010904//EN"
 "http://www.w3.org/TR/2001/REC-SVG-20010904/DTD/svg10.dtd">
<svg version="1.0" xmlns="http://www.w3.org/2000/svg"
 width="417.000000pt" height="632.000000pt" viewBox="0 0 417.000000 632.000000"
 preserveAspectRatio="xMidYMid meet">
<metadata>
Created by potrace 1.16, written by Peter Selinger 2001-2019
</metadata>
<g transform="translate(0.000000,632.000000) scale(0.100000,-0.100000)"
fill="#000000" stroke="none">
<path d="M2220 6313 c-85 -6 -285 -34 -320 -44 -19 -6 -57 -19 -85 -29 -27
-10 -63 -21 -78 -25 -30 -6 -310 -191 -392 -259 -191 -157 -407 -381 -539
-560 -62 -83 -131 -182 -153 -221 -23 -38 -53 -88 -66 -110 -23 -38 -33 -59
-87 -195 -20 -52 -55 -179 -86 -315 -7 -33 -14 -85 -14 -115 0 -72 25 -287 44
-370 40 -181 114 -464 162 -625 84 -280 82 -262 86 -575 3 -201 3 -206 -21
-245 -41 -68 -102 -124 -216 -200 -147 -98 -274 -228 -334 -343 -92 -178 -113
-294 -113 -617 0 -270 23 -358 156 -593 72 -127 109 -171 240 -289 329 -296
538 -409 931 -505 175 -43 505 -83 600 -73 188 19 252 35 400 102 337 154 419
205 585 361 289 274 430 488 476 727 15 75 16 103 6 213 -27 302 -77 448 -265
767 -73 124 -108 172 -189 263 -43 48 -48 58 -48 101 0 52 17 81 79 136 62 54
105 134 131 241 19 79 29 104 52 126 31 29 35 30 188 48 102 12 251 48 326 80
94 41 213 159 266 265 53 104 61 219 22 310 -49 113 -65 179 -74 300 -12 152
-6 171 116 405 85 161 144 310 144 360 0 11 5 20 10 20 6 0 10 33 10 80 0 44
-4 80 -9 80 -4 0 -18 28 -31 63 -30 83 -111 240 -173 335 -116 179 -344 445
-435 508 -13 9 -42 34 -65 55 -23 22 -88 71 -145 110 -251 172 -498 240 -912
252 -74 2 -155 2 -180 0z"/>
</g>
</svg>
