<?xml version="1.0" standalone="no"?>
<!DOCTYPE svg PUBLIC "-//W3C//DTD SVG 20010904//EN"
 "http://www.w3.org/TR/2001/REC-SVG-20010904/DTD/svg10.dtd">
<svg version="1.0" xmlns="http://www.w3.org/2000/svg"
 width="432.000000pt" height="635.000000pt" viewBox="0 0 432.000000 635.000000"
 preserveAspectRatio="xMidYMid meet">
<metadata>
Created by potrace 1.16, written by Peter Selinger 2001-2019
</metadata>
<g transform="translate(0.000000,635.000000) scale(0.100000,-0.100000)"
fill="#000000" stroke="none">
<path d="M2195 6325 c-363 -80 -615 -243 -1030 -666 -205 -210 -285 -316 -396
-524 -142 -268 -181 -379 -215 -600 -9 -55 -22 -138 -29 -185 -9 -57 -12 -154
-10 -295 4 -224 16 -358 40 -426 8 -23 15 -76 15 -118 0 -42 5 -94 11 -116 6
-22 12 -101 13 -175 1 -155 -12 -212 -73 -319 -38 -67 -84 -193 -97 -266 -14
-77 -55 -145 -143 -239 -100 -106 -146 -187 -210 -366 -52 -149 -61 -205 -68
-437 -6 -200 -3 -232 39 -393 42 -160 107 -291 213 -430 51 -66 204 -232 260
-281 143 -126 418 -268 590 -304 17 -3 59 -16 95 -29 36 -13 85 -29 110 -35
25 -6 90 -23 145 -37 121 -31 225 -48 416 -69 117 -13 162 -14 244 -5 55 6
136 15 180 20 44 5 127 17 185 28 58 11 137 26 175 32 116 20 314 99 470 185
343 192 559 387 749 677 108 165 145 305 153 578 6 196 -8 324 -53 490 -54
201 -54 199 -33 317 32 186 35 321 10 448 -21 110 -49 195 -89 270 l-22 39 53
21 c102 42 135 65 212 147 147 156 186 239 193 410 8 209 -50 377 -178 510
-39 40 -70 75 -70 78 0 3 26 46 59 96 32 50 75 120 94 155 36 65 97 254 97
303 0 14 5 26 10 26 6 0 10 20 10 45 0 25 -4 45 -9 45 -4 0 -11 22 -14 49 -13
106 -98 264 -265 491 -172 234 -322 412 -408 482 -174 143 -401 275 -557 323
-125 38 -363 67 -577 71 -166 3 -196 1 -295 -21z"/>
</g>
</svg>
