<?xml version="1.0" standalone="no"?>
<!DOCTYPE svg PUBLIC "-//W3C//DTD SVG 20010904//EN"
 "http://www.w3.org/TR/2001/REC-SVG-20010904/DTD/svg10.dtd">
<svg version="1.0" xmlns="http://www.w3.org/2000/svg"
 width="420.000000pt" height="581.000000pt" viewBox="0 0 420.000000 581.000000"
 preserveAspectRatio="xMidYMid meet">
<metadata>
Created by potrace 1.16, written by Peter Selinger 2001-2019
</metadata>
<g transform="translate(0.000000,581.000000) scale(0.100000,-0.100000)"
fill="#000000" stroke="none">
<path d="M1989 5800 c-221 -12 -357 -45 -534 -130 -174 -84 -344 -225 -456
-380 -113 -155 -318 -607 -374 -823 -77 -300 -105 -396 -125 -429 -19 -32 -51
-112 -180 -438 -22 -58 -63 -154 -90 -215 -87 -196 -108 -268 -174 -611 -52
-266 -58 -362 -54 -870 4 -424 5 -454 26 -531 12 -44 33 -105 47 -135 14 -29
25 -63 25 -74 0 -22 124 -214 188 -291 80 -96 374 -413 428 -461 31 -28 87
-67 123 -87 36 -20 93 -53 126 -74 164 -102 399 -178 665 -215 228 -33 313
-38 411 -26 52 6 140 15 197 21 124 11 227 31 325 64 39 13 108 33 153 44 202
49 388 134 534 241 52 39 112 81 132 95 83 56 281 266 389 415 51 70 103 179
169 356 75 198 111 351 130 544 6 63 15 144 20 180 15 102 12 494 -4 617 -8
59 -18 140 -21 178 -8 88 -36 207 -71 305 -80 228 -76 210 -58 239 9 14 26 36
37 49 60 66 152 246 174 341 19 83 33 121 44 121 5 0 9 41 9 90 0 50 -4 90 -8
90 -5 0 -14 66 -21 148 -21 268 -41 426 -67 537 -14 61 -29 133 -34 160 -21
123 -93 249 -231 404 -80 90 -140 139 -295 238 -162 104 -190 117 -448 208
-165 59 -586 116 -831 113 -77 0 -201 -4 -276 -8z"/>
</g>
</svg>
