<?xml version="1.0" standalone="no"?>
<!DOCTYPE svg PUBLIC "-//W3C//DTD SVG 20010904//EN"
 "http://www.w3.org/TR/2001/REC-SVG-20010904/DTD/svg10.dtd">
<svg version="1.0" xmlns="http://www.w3.org/2000/svg"
 width="430.000000pt" height="581.000000pt" viewBox="0 0 430.000000 581.000000"
 preserveAspectRatio="xMidYMid meet">
<metadata>
Created by potrace 1.16, written by Peter Selinger 2001-2019
</metadata>
<g transform="translate(0.000000,581.000000) scale(0.100000,-0.100000)"
fill="#000000" stroke="none">
<path d="M2059 5800 c-221 -12 -357 -45 -534 -130 -174 -84 -344 -225 -456
-380 -61 -84 -159 -273 -239 -460 -30 -69 -68 -157 -86 -195 -39 -82 -97 -317
-114 -460 -7 -55 -21 -145 -32 -200 -26 -130 -37 -485 -17 -578 7 -34 13 -118
13 -187 1 -144 -14 -205 -73 -309 -38 -68 -84 -195 -97 -266 -11 -67 -60 -146
-148 -237 -95 -99 -143 -182 -201 -348 -52 -149 -65 -228 -72 -452 -6 -205 -3
-236 39 -398 42 -160 107 -291 213 -430 51 -66 204 -232 260 -281 143 -126
418 -268 590 -304 17 -3 59 -16 95 -29 36 -13 85 -29 110 -35 25 -6 90 -23
145 -37 121 -31 225 -48 416 -69 117 -13 162 -14 244 -5 55 6 136 15 180 20
44 5 127 17 185 28 58 11 137 26 175 32 116 20 314 99 470 185 343 192 559
387 749 677 108 165 145 305 153 578 6 196 -8 324 -53 490 -54 201 -54 199
-33 317 32 186 35 321 10 448 -21 110 -49 195 -89 270 l-22 39 53 21 c102 42
135 65 212 147 147 156 186 239 193 410 9 217 -52 383 -189 520 -48 49 -79 87
-79 100 0 12 23 89 52 172 49 144 52 156 56 276 3 121 3 128 -28 208 -35 90
-105 194 -207 308 -77 85 -137 134 -289 231 -162 104 -190 117 -448 208 -165
59 -586 116 -831 113 -77 0 -201 -4 -276 -8z"/>
</g>
</svg>
