<?xml version="1.0" standalone="no"?>
<!DOCTYPE svg PUBLIC "-//W3C//DTD SVG 20010904//EN"
 "http://www.w3.org/TR/2001/REC-SVG-20010904/DTD/svg10.dtd">
<svg version="1.0" xmlns="http://www.w3.org/2000/svg"
 width="378.000000pt" height="581.000000pt" viewBox="0 0 378.000000 581.000000"
 preserveAspectRatio="xMidYMid meet">
<metadata>
Created by potrace 1.16, written by Peter Selinger 2001-2019
</metadata>
<g transform="translate(0.000000,581.000000) scale(0.100000,-0.100000)"
fill="#000000" stroke="none">
<path d="M1689 5800 c-221 -12 -357 -45 -534 -130 -174 -84 -343 -225 -456
-380 -84 -116 -257 -471 -299 -615 -10 -33 -32 -87 -48 -121 -17 -34 -41 -101
-52 -150 -12 -49 -30 -123 -40 -164 -48 -193 -75 -387 -94 -685 -4 -49 -13
-160 -21 -245 -16 -163 -30 -357 -44 -625 -5 -89 -16 -203 -24 -255 -9 -52
-21 -174 -27 -270 -15 -266 -17 -278 -35 -385 -24 -145 -16 -356 18 -486 43
-158 94 -301 143 -400 148 -299 359 -526 646 -698 109 -65 138 -77 262 -108
190 -47 520 -89 621 -78 193 19 278 42 427 116 217 106 404 240 493 351 68 86
207 292 241 361 38 74 82 214 110 348 27 133 32 192 22 254 -9 47 -72 226 -92
258 -7 12 -26 60 -41 107 -15 47 -35 103 -45 125 -33 74 -110 319 -121 384
-12 79 -1 143 47 259 19 45 52 133 73 195 55 158 58 164 95 171 56 11 160 72
239 142 46 41 151 173 205 259 133 210 329 721 353 920 6 50 17 118 25 153 8
34 18 85 21 112 3 28 10 50 14 50 11 0 12 307 1 312 -5 2 -21 36 -36 76 -45
118 -204 321 -325 414 -71 55 -261 177 -330 212 -49 25 -118 52 -285 111 -165
59 -586 116 -831 113 -77 0 -201 -4 -276 -8z"/>
</g>
</svg>
