<?xml version="1.0" standalone="no"?>
<!DOCTYPE svg PUBLIC "-//W3C//DTD SVG 20010904//EN"
 "http://www.w3.org/TR/2001/REC-SVG-20010904/DTD/svg10.dtd">
<svg version="1.0" xmlns="http://www.w3.org/2000/svg"
 width="378.000000pt" height="247.000000pt" viewBox="0 0 378.000000 247.000000"
 preserveAspectRatio="xMidYMid meet">
<metadata>
Created by potrace 1.16, written by Peter Selinger 2001-2019
</metadata>
<g transform="translate(0.000000,247.000000) scale(0.100000,-0.100000)"
fill="#000000" stroke="none">
<path d="M1840 2459 c-19 -5 -100 -12 -180 -15 -145 -5 -145 -5 -198 -40 -29
-19 -69 -50 -90 -68 -29 -26 -48 -34 -90 -38 -32 -3 -65 -14 -82 -27 -38 -28
-70 -27 -141 5 l-59 27 -67 -17 c-113 -28 -218 -104 -278 -204 -27 -45 -35
-51 -106 -76 -102 -36 -194 -92 -234 -141 -18 -22 -45 -76 -60 -120 -32 -95
-41 -110 -95 -162 -49 -46 -76 -128 -86 -258 -4 -44 -14 -105 -24 -135 -10
-30 -26 -99 -36 -153 -34 -184 4 -330 128 -495 73 -97 129 -152 200 -197 52
-32 68 -49 90 -95 76 -157 229 -250 410 -250 134 0 256 42 341 118 49 44 106
72 145 72 26 0 69 23 84 44 3 5 34 13 67 17 74 8 141 54 192 129 24 34 45 53
69 61 19 6 63 26 97 45 l62 33 53 -18 c29 -10 74 -21 99 -25 30 -4 53 -15 66
-30 13 -15 37 -26 67 -30 37 -6 56 -17 90 -51 30 -30 60 -49 96 -59 28 -8 80
-29 115 -47 55 -27 80 -33 158 -37 145 -7 245 29 352 128 46 43 56 48 124 58
194 28 346 172 388 364 14 66 21 82 42 93 14 7 44 35 66 61 35 43 40 56 47
121 8 74 10 78 83 183 23 33 30 56 33 105 5 75 -9 122 -55 189 -18 26 -33 57
-33 67 0 57 -54 126 -137 175 -28 17 -53 44 -73 78 -44 78 -123 147 -222 195
-52 26 -89 50 -95 64 -6 12 -32 48 -58 80 -39 48 -61 65 -129 96 -46 21 -88
48 -97 62 -32 48 -256 69 -351 33 -70 -27 -110 -28 -164 -5 -39 16 -75 21
-171 24 -109 3 -126 5 -153 26 -62 45 -128 59 -200 40z"/>
</g>
</svg>
