<?xml version="1.0" standalone="no"?>
<!DOCTYPE svg PUBLIC "-//W3C//DTD SVG 20010904//EN"
 "http://www.w3.org/TR/2001/REC-SVG-20010904/DTD/svg10.dtd">
<svg version="1.0" xmlns="http://www.w3.org/2000/svg"
 width="408.000000pt" height="393.000000pt" viewBox="0 0 408.000000 393.000000"
 preserveAspectRatio="xMidYMid meet">
<metadata>
Created by potrace 1.16, written by Peter Selinger 2001-2019
</metadata>
<g transform="translate(0.000000,393.000000) scale(0.100000,-0.100000)"
fill="#000000" stroke="none">
<path d="M2918 3923 c-10 -2 -18 -8 -18 -13 0 -4 -10 -10 -22 -14 -13 -3 -71
-52 -129 -108 -153 -149 -187 -180 -285 -258 -102 -80 -173 -119 -333 -185
l-114 -47 -66 46 c-108 74 -189 104 -305 111 -103 6 -377 -36 -493 -76 -62
-21 -123 -63 -123 -83 0 -17 39 -28 71 -19 13 3 66 8 117 10 89 5 97 3 155
-26 84 -42 141 -93 133 -118 -6 -19 -16 -20 -158 -21 -84 -1 -170 -4 -193 -7
-240 -38 -404 -125 -439 -233 -8 -26 -17 -67 -18 -92 -4 -57 17 -64 71 -21 57
45 148 84 208 89 48 4 53 3 53 -16 0 -33 -60 -89 -109 -102 -24 -6 -69 -22
-98 -36 -30 -13 -69 -26 -86 -28 -18 -2 -48 -9 -67 -15 -107 -34 -222 -1 -367
104 -19 14 -43 -19 -43 -59 0 -57 20 -104 65 -154 25 -28 45 -57 45 -66 0 -36
-120 -74 -267 -83 l-103 -6 0 -32 c0 -34 29 -63 95 -98 17 -8 80 -64 140 -123
65 -65 148 -134 202 -169 72 -47 98 -71 123 -112 18 -29 70 -103 116 -164 46
-62 85 -117 85 -123 1 -6 3 -96 4 -201 3 -254 28 -345 97 -345 35 0 75 38 149
142 24 34 93 125 153 202 101 131 154 195 392 476 85 100 93 113 113 188 36
134 65 187 118 216 25 14 66 32 92 40 25 8 55 18 65 22 16 6 18 4 12 -12 -14
-34 -46 -198 -46 -236 0 -70 20 -60 88 42 61 93 156 202 203 234 75 51 135 51
343 -3 44 -12 89 -21 101 -21 58 0 111 -79 161 -242 77 -251 78 -254 89 -573
4 -99 10 -235 14 -301 9 -130 -1 -376 -20 -486 -8 -48 -8 -72 1 -87 10 -19 13
-20 43 -8 25 10 36 25 50 63 10 27 23 52 29 55 6 4 7 12 4 18 -4 6 -3 11 2 11
27 0 102 304 106 429 2 47 6 93 9 101 3 8 8 44 12 80 9 100 9 100 18 100 5 0
6 -31 1 -72 -4 -40 -7 -111 -5 -158 2 -95 -30 -597 -55 -853 -9 -92 -14 -170
-11 -173 3 -4 17 -4 31 0 19 5 36 29 79 118 30 62 72 157 93 210 22 54 43 98
48 98 22 0 -4 -219 -49 -424 -33 -150 -43 -212 -35 -220 17 -17 72 19 112 72
38 51 107 197 144 304 25 71 89 335 98 403 12 95 36 337 41 420 12 172 14 609
4 693 -6 46 -9 85 -7 87 2 2 31 -9 63 -24 111 -52 161 -64 238 -57 75 7 127
30 127 57 0 10 -21 27 -56 43 -91 43 -151 87 -172 125 -36 65 -71 178 -83 268
-12 94 -36 194 -63 257 -9 21 -16 40 -16 43 0 2 26 -14 58 -36 40 -29 65 -55
80 -86 23 -48 47 -58 57 -25 10 31 -5 128 -22 142 -8 6 -24 30 -35 52 -46 91
-148 195 -232 236 -78 38 -183 54 -313 47 -74 -3 -107 -1 -120 8 -15 11 -15
15 -3 30 17 21 161 106 220 129 70 29 172 26 237 -7 63 -33 115 -77 143 -123
22 -35 47 -44 56 -20 7 17 -45 149 -80 205 -46 73 -138 162 -198 192 -96 48
-214 72 -353 71 -138 -1 -235 -9 -318 -24 -54 -10 -60 -9 -80 10 -20 20 -20
26 -10 87 15 85 75 176 156 235 43 32 57 48 55 64 -3 18 -9 21 -42 20 -38 -2
-39 -1 -15 12 24 13 20 16 -13 7z"/>
</g>
</svg>
