<?xml version="1.0" standalone="no"?>
<!DOCTYPE svg PUBLIC "-//W3C//DTD SVG 20010904//EN"
 "http://www.w3.org/TR/2001/REC-SVG-20010904/DTD/svg10.dtd">
<svg version="1.0" xmlns="http://www.w3.org/2000/svg"
 width="502.000000pt" height="468.000000pt" viewBox="0 0 502.000000 468.000000"
 preserveAspectRatio="xMidYMid meet">
<metadata>
Created by potrace 1.16, written by Peter Selinger 2001-2019
</metadata>
<g transform="translate(0.000000,468.000000) scale(0.100000,-0.100000)"
fill="#000000" stroke="none">
<path d="M2383 4661 c-17 -11 -35 -26 -40 -34 -4 -8 -18 -20 -31 -26 -42 -22
-46 -57 -14 -120 41 -78 81 -104 152 -98 33 2 67 -1 87 -9 18 -8 45 -11 62 -8
39 8 101 -28 101 -59 0 -32 35 -84 68 -101 29 -15 42 -40 42 -85 0 -23 -1 -24
-20 -6 -11 10 -20 24 -20 31 0 21 -58 72 -89 79 -16 3 -33 16 -39 29 -5 13
-25 31 -44 40 -18 10 -44 24 -58 32 -29 16 -59 18 -79 5 -11 -7 -26 0 -55 25
-64 55 -81 39 -21 -20 30 -30 33 -39 28 -70 -3 -23 0 -48 11 -70 9 -19 16 -39
16 -45 0 -24 -41 -9 -72 25 -43 48 -120 84 -180 84 -46 0 -98 -16 -98 -30 0
-4 -15 -11 -34 -14 -19 -4 -45 -15 -59 -26 l-24 -19 -41 39 c-32 31 -48 40
-75 40 -31 0 -36 4 -42 30 -8 36 -67 90 -98 90 -14 0 -32 12 -45 30 -31 42
-89 58 -132 36 -18 -9 -49 -16 -69 -16 -85 -1 -121 -92 -61 -152 25 -25 37
-29 67 -26 30 4 41 -1 69 -30 19 -19 34 -39 34 -43 0 -4 -13 -10 -30 -14 -16
-4 -32 -11 -36 -16 -3 -6 -18 10 -34 34 -28 45 -79 77 -122 77 -17 0 -29 8
-36 25 -25 55 -114 81 -179 53 -15 -7 -47 -12 -70 -13 -37 0 -43 3 -57 33 -24
50 -70 74 -134 69 -40 -3 -59 -10 -80 -30 -16 -15 -33 -27 -39 -27 -19 0 -73
-70 -73 -95 0 -13 -13 -37 -30 -53 -40 -41 -40 -83 -1 -123 17 -17 40 -29 55
-29 36 0 75 20 81 42 9 26 32 36 100 39 54 3 63 1 90 -24 25 -24 36 -28 81
-26 68 3 110 -15 117 -50 8 -37 49 -85 87 -101 66 -27 17 -33 -199 -24 -133 6
-149 3 -193 -34 -18 -15 -50 -36 -71 -46 -77 -39 -108 -107 -105 -231 1 -86 0
-92 -31 -141 -37 -59 -52 -149 -32 -204 12 -37 -1 -54 -51 -65 -14 -3 -38 -17
-53 -31 -14 -13 -38 -24 -53 -24 -61 0 -122 -61 -132 -133 -5 -38 -7 -40 -53
-52 -53 -13 -89 -42 -108 -86 -6 -17 -24 -36 -39 -44 -33 -17 -64 -78 -56
-110 4 -15 1 -27 -7 -32 -20 -12 -37 -48 -37 -78 0 -38 50 -85 90 -85 37 0 90
47 90 79 0 12 4 21 9 21 18 0 20 -32 5 -62 -12 -23 -15 -47 -11 -85 5 -46 3
-54 -14 -64 -28 -15 -59 -69 -59 -104 0 -16 -12 -52 -26 -80 -21 -41 -24 -58
-19 -95 4 -25 8 -61 10 -81 3 -41 28 -95 47 -102 21 -8 -7 -30 -41 -32 -17 -2
-43 -10 -57 -20 -31 -20 -58 -79 -49 -112 3 -14 -1 -33 -10 -46 -41 -59 0
-137 73 -137 43 0 92 37 92 70 0 29 42 59 67 49 l23 -8 -25 -38 c-31 -48 -34
-51 -72 -73 -42 -25 -64 -60 -68 -109 -1 -22 -12 -52 -24 -66 -43 -56 -45
-132 -5 -193 26 -38 26 -49 -2 -89 -26 -39 -33 -108 -13 -146 15 -26 22 -94
20 -170 -2 -49 2 -61 23 -82 36 -36 88 -34 127 4 17 18 29 40 29 56 0 30 41
90 50 74 4 -5 2 -28 -4 -50 -7 -27 -7 -51 1 -79 8 -32 7 -49 -5 -84 -21 -56
-4 -117 43 -161 60 -55 117 -95 137 -95 32 0 73 27 87 57 8 15 22 44 31 63 29
56 33 94 15 136 -8 20 -21 44 -27 51 -19 23 -13 123 11 173 11 25 21 57 21 72
0 54 12 62 30 21 12 -27 15 -45 8 -63 -6 -16 -5 -39 2 -65 9 -33 8 -46 -4 -70
-24 -46 -19 -87 19 -168 20 -42 33 -82 29 -91 -22 -56 38 -147 109 -165 24 -5
56 -22 72 -36 19 -18 35 -25 49 -21 11 3 24 6 28 6 14 0 21 48 19 123 -2 42 0
77 3 77 4 0 15 -20 26 -44 10 -24 23 -47 29 -50 6 -4 11 -28 11 -52 0 -34 9
-63 36 -110 20 -35 40 -66 45 -70 5 -3 9 -16 9 -30 0 -46 27 -90 74 -123 26
-17 57 -31 70 -31 23 0 56 28 56 47 0 5 7 24 16 42 11 22 14 44 10 69 -9 48
-9 70 -1 109 12 57 -73 207 -127 225 -7 3 -11 31 -10 73 2 81 -17 127 -60 153
-24 14 -28 22 -23 42 16 69 17 118 1 149 -14 27 -15 37 -5 65 10 27 9 39 -3
64 -15 29 -15 32 3 48 17 16 19 14 42 -39 14 -30 30 -58 36 -61 6 -4 11 -16
11 -27 0 -11 18 -39 41 -63 22 -25 45 -61 51 -82 13 -50 105 -137 166 -160 26
-9 62 -32 80 -50 40 -41 68 -43 123 -8 53 33 75 83 60 135 -6 20 -11 39 -11
42 0 3 20 -16 45 -41 36 -37 45 -52 45 -81 0 -41 19 -76 81 -146 24 -27 53
-67 63 -87 10 -21 31 -45 45 -55 14 -9 40 -31 57 -50 41 -44 84 -45 125 -3 25
24 30 37 28 72 -1 24 1 58 5 75 10 44 -9 97 -44 127 -16 13 -32 36 -36 51 -4
14 -22 41 -40 59 -27 26 -34 41 -34 72 0 45 -30 100 -62 115 -20 9 -23 16 -20
57 4 60 -22 109 -71 135 -34 17 -35 19 -21 45 8 15 14 39 14 54 0 15 5 30 10
33 6 4 8 10 5 15 -3 5 4 23 16 39 16 22 20 38 16 63 -4 18 -10 60 -15 93 -15
100 -56 162 -130 200 -19 9 -54 37 -78 63 l-45 46 11 116 c15 161 29 267 41
323 9 39 15 47 34 47 65 0 167 58 214 122 l28 38 18 -27 c10 -15 19 -42 20
-60 1 -18 9 -41 18 -51 10 -10 17 -26 17 -35 0 -23 44 -50 69 -42 25 8 71 96
71 135 0 16 4 31 10 35 15 9 42 -54 35 -82 -10 -40 13 -89 60 -127 60 -49 86
-47 124 8 41 60 51 89 42 123 -5 20 -2 37 12 61 15 26 18 42 12 75 -8 48 -8
68 0 152 4 33 7 84 9 112 2 39 8 59 25 77 28 30 39 103 21 145 -11 28 -13 78
-6 236 3 83 3 82 31 89 14 4 28 7 32 9 5 1 8 -19 8 -44 0 -27 8 -57 19 -73 19
-30 79 -60 106 -53 22 6 24 -56 3 -97 -19 -36 -12 -109 12 -136 13 -14 14 -23
6 -39 -6 -11 -11 -33 -11 -49 0 -24 -7 -34 -34 -50 -46 -27 -69 -73 -63 -126
10 -78 27 -141 47 -168 11 -15 20 -31 20 -36 0 -16 36 -42 57 -42 29 0 123 92
124 121 1 13 2 31 3 39 1 8 7 25 14 37 14 25 16 82 3 102 -7 10 -2 20 15 33
30 24 49 84 36 117 -7 19 -4 32 15 59 27 41 31 102 8 146 -8 15 -12 38 -9 51
3 12 -1 38 -9 57 -12 29 -12 38 -1 59 7 13 13 34 14 45 0 28 30 25 151 -16 50
-16 99 -30 110 -30 33 0 96 38 126 75 24 31 34 35 73 35 25 0 65 9 89 20 49
23 88 20 156 -11 45 -21 195 -26 240 -9 24 9 32 6 64 -23 41 -37 42 -56 5
-100 -31 -37 -38 -67 -30 -127 4 -27 2 -51 -3 -54 -38 -24 -1 -179 47 -197 18
-7 31 -6 46 4 11 8 34 17 49 21 33 8 67 59 67 102 0 20 9 39 25 54 30 28 46
74 45 126 -1 51 6 113 14 121 7 7 44 -24 58 -50 6 -13 4 -33 -8 -69 -14 -44
-15 -59 -5 -98 7 -25 9 -54 5 -63 -7 -20 20 -100 41 -117 10 -8 11 -18 4 -36
-5 -14 -9 -35 -9 -46 0 -40 39 -103 79 -128 21 -14 45 -37 54 -52 21 -37 60
-54 138 -62 84 -8 95 2 104 101 7 64 5 77 -18 125 -13 29 -32 70 -40 90 -9 20
-30 47 -47 59 -35 27 -37 46 -10 99 31 61 23 131 -22 186 -5 7 -11 48 -13 92
-5 110 -21 156 -67 197 -21 19 -44 35 -51 35 -6 0 -19 18 -29 40 -17 42 -68
80 -106 80 -13 0 -38 10 -55 22 l-31 22 44 11 c53 13 112 1 153 -32 35 -28 92
-46 122 -41 17 4 27 -2 39 -24 10 -15 21 -28 25 -28 5 0 16 -20 25 -44 9 -24
26 -52 36 -61 13 -12 20 -31 20 -54 0 -20 8 -48 18 -62 25 -38 108 -99 135
-99 23 0 89 63 113 109 17 33 17 89 0 120 -9 16 -12 46 -9 90 4 57 2 71 -19
101 -13 19 -43 45 -67 57 -24 12 -50 31 -58 43 -17 24 -64 50 -91 50 -12 0
-22 9 -26 23 -16 66 -78 107 -169 111 -89 5 -137 16 -177 42 -73 46 -145 39
-210 -21 -40 -37 -91 -51 -123 -33 -12 7 -39 14 -60 17 l-38 6 36 35 c21 19
47 45 58 56 18 18 30 21 73 17 35 -4 60 0 83 11 34 18 84 14 132 -10 35 -18
187 -17 222 1 22 11 28 11 37 0 7 -8 21 -17 33 -21 12 -4 33 -19 48 -33 34
-34 139 -67 167 -52 27 14 32 33 28 108 -3 69 -23 108 -64 126 -15 7 -35 22
-45 34 -24 30 -80 47 -116 35 -23 -8 -30 -7 -40 10 -21 33 -88 55 -161 52
-112 -5 -192 -12 -197 -18 -3 -3 -22 4 -41 15 -20 10 -46 19 -56 19 -15 0 -17
3 -9 11 8 8 17 8 33 -1 28 -15 81 -6 112 19 17 14 28 17 41 9 27 -14 69 -1
105 32 41 37 40 61 -3 106 -34 34 -39 36 -86 32 -27 -3 -52 -1 -55 3 -3 5 -23
13 -45 19 -34 9 -47 8 -78 -7 -36 -18 -39 -18 -67 -1 -64 39 -155 11 -189 -60
-22 -46 -49 -57 -132 -53 -88 5 -153 -54 -153 -138 0 -19 -7 -34 -19 -40 -17
-10 -57 -89 -48 -97 2 -3 -9 -19 -26 -38 l-30 -33 -36 20 c-47 26 -99 17 -146
-24 -33 -29 -37 -30 -71 -19 -23 8 -62 10 -100 7 -79 -8 -90 2 -76 68 12 55 2
97 -33 145 -14 19 -25 39 -25 46 0 6 -9 23 -20 37 -11 14 -20 35 -20 48 0 35
-69 168 -106 205 -31 32 -68 56 -137 92 -35 18 -110 11 -136 -12 -25 -23 -56
-20 -68 7 -12 25 -68 57 -100 57 -10 0 -32 -9 -50 -19z m-1164 -1101 c30 0 41
-4 41 -15 0 -8 -9 -15 -20 -15 -26 0 -72 -23 -89 -44 -9 -11 -31 -16 -66 -16
-44 0 -57 -4 -76 -26 -13 -14 -37 -38 -53 -52 -16 -15 -37 -40 -47 -57 l-19
-30 0 73 c0 59 3 72 16 72 26 0 84 65 84 94 0 25 2 25 78 28 42 2 85 0 94 -4
9 -5 35 -8 57 -8z m-661 -1057 c-6 -16 -19 -47 -29 -70 -21 -48 -24 -105 -8
-151 9 -27 7 -35 -20 -72 -16 -23 -33 -54 -36 -70 -9 -40 -30 -53 -23 -14 4
16 1 45 -6 64 -8 24 -9 45 -2 68 6 21 6 44 -1 66 -10 32 -8 36 19 56 16 12 36
38 46 58 14 31 59 92 69 92 1 0 -2 -12 -9 -27z m977 -1403 c17 0 55 -35 55
-51 0 -5 -4 -7 -10 -4 -5 3 -10 3 -10 -2 1 -4 19 -20 40 -35 39 -27 52 -59 29
-74 -17 -10 -120 46 -129 72 -5 12 -23 33 -39 45 -37 27 -59 83 -41 104 11 13
18 10 51 -20 22 -19 46 -35 54 -35z"/>
</g>
</svg>
