<?xml version="1.0" standalone="no"?>
<!DOCTYPE svg PUBLIC "-//W3C//DTD SVG 20010904//EN"
 "http://www.w3.org/TR/2001/REC-SVG-20010904/DTD/svg10.dtd">
<svg version="1.0" xmlns="http://www.w3.org/2000/svg"
 width="252.000000pt" height="119.000000pt" viewBox="0 0 252.000000 119.000000"
 preserveAspectRatio="xMidYMid meet">
<metadata>
Created by potrace 1.16, written by Peter Selinger 2001-2019
</metadata>
<g transform="translate(0.000000,119.000000) scale(0.100000,-0.100000)"
fill="#000000" stroke="none">
<path d="M870 1180 c-30 -4 -84 -11 -120 -15 -36 -4 -68 -9 -71 -11 -18 -11
-164 -26 -298 -30 -134 -5 -164 -9 -216 -30 -106 -43 -151 -110 -158 -233 -4
-56 14 -186 27 -199 4 -4 78 -6 164 -5 1130 14 1284 14 1410 -1 70 -9 156 -18
192 -22 87 -9 219 -47 310 -91 57 -27 94 -56 158 -119 46 -46 86 -84 90 -84 4
0 17 15 29 33 32 47 46 149 41 297 -4 127 -4 129 -46 212 -48 97 -94 145 -198
205 -159 92 -233 101 -809 101 -247 0 -475 -4 -505 -8z"/>
</g>
</svg>
