<?xml version="1.0" standalone="no"?>
<!DOCTYPE svg PUBLIC "-//W3C//DTD SVG 20010904//EN"
 "http://www.w3.org/TR/2001/REC-SVG-20010904/DTD/svg10.dtd">
<svg version="1.0" xmlns="http://www.w3.org/2000/svg"
 width="476.000000pt" height="454.000000pt" viewBox="0 0 476.000000 454.000000"
 preserveAspectRatio="xMidYMid meet">
<metadata>
Created by potrace 1.16, written by Peter Selinger 2001-2019
</metadata>
<g transform="translate(0.000000,454.000000) scale(0.100000,-0.100000)"
fill="#000000" stroke="none">
<path d="M2160 4526 c-101 -22 -167 -66 -201 -133 -13 -26 -49 -72 -80 -103
-90 -88 -107 -118 -130 -221 -22 -97 -20 -126 16 -329 17 -98 18 -96 -15 -133
-24 -27 -43 -38 -83 -46 -91 -19 -161 -32 -212 -40 -101 -16 -136 -43 -190
-151 -19 -37 -53 -83 -79 -107 -58 -53 -92 -126 -109 -237 -14 -83 -31 -119
-79 -163 -21 -19 -36 -22 -168 -25 -141 -4 -147 -5 -230 -41 -91 -40 -149 -89
-241 -204 -82 -102 -91 -131 -94 -317 -3 -126 1 -184 16 -266 22 -122 35 -291
25 -342 -3 -19 -22 -54 -42 -77 -25 -28 -38 -55 -41 -84 -4 -26 -16 -53 -33
-72 -67 -74 -132 -198 -170 -325 -30 -101 -29 -348 3 -440 23 -66 103 -200
121 -200 5 0 42 -15 82 -34 74 -36 104 -65 142 -141 26 -52 105 -126 170 -159
61 -31 159 -56 223 -56 32 0 55 -7 79 -25 55 -40 124 -59 189 -50 31 4 84 7
119 6 71 -2 171 27 217 63 24 20 29 32 33 84 4 53 1 65 -19 90 -13 16 -32 44
-41 61 -9 17 -33 40 -52 52 l-34 20 18 42 c69 155 33 360 -84 485 l-45 48 36
28 c48 39 109 137 133 214 34 109 22 244 -29 343 -12 22 -21 42 -21 46 0 3 21
3 47 0 199 -22 409 111 479 303 33 94 35 162 8 311 -5 32 -4 37 17 41 13 3 62
17 109 31 57 16 120 26 190 30 127 6 157 17 235 91 56 53 88 77 158 120 16 10
37 35 46 56 17 38 18 39 39 24 12 -8 46 -23 74 -33 167 -57 346 -20 472 98 42
39 61 50 109 59 77 15 168 65 230 125 27 26 55 46 62 43 7 -2 21 -29 30 -58
57 -175 204 -297 391 -322 46 -7 51 -10 74 -52 13 -25 41 -61 63 -79 22 -19
48 -53 59 -76 10 -23 36 -62 58 -85 22 -24 40 -48 40 -53 0 -5 16 -19 36 -32
48 -29 74 -74 74 -126 0 -53 19 -65 100 -65 128 0 214 89 213 222 -1 48 4 72
18 92 25 35 49 103 49 139 0 17 5 29 13 29 8 0 7 4 -3 10 -12 8 -13 11 -1 19
11 7 11 9 0 14 -12 5 -12 7 0 15 11 8 11 10 0 15 -12 4 -11 7 1 16 8 6 10 11
4 11 -6 0 -14 25 -17 55 -12 117 -86 220 -215 301 -2 1 9 38 23 81 40 113 46
284 16 404 -24 90 -63 165 -124 235 -29 33 -69 58 -163 105 -69 34 -148 81
-175 104 -48 41 -52 42 -137 48 -111 8 -197 1 -275 -23 -34 -11 -64 -16 -68
-12 -3 4 -15 30 -26 58 -27 66 -125 207 -167 239 -17 13 -52 33 -78 44 -26 11
-81 48 -121 83 -45 38 -95 71 -126 82 -28 10 -55 23 -59 30 -4 6 -26 24 -49
39 -38 26 -51 29 -159 34 -110 6 -124 9 -203 46 -47 21 -115 45 -151 53 -79
17 -245 17 -320 0z"/>
</g>
</svg>
