<?xml version="1.0" standalone="no"?>
<!DOCTYPE svg PUBLIC "-//W3C//DTD SVG 20010904//EN"
 "http://www.w3.org/TR/2001/REC-SVG-20010904/DTD/svg10.dtd">
<svg version="1.0" xmlns="http://www.w3.org/2000/svg"
 width="438.000000pt" height="455.000000pt" viewBox="0 0 438.000000 455.000000"
 preserveAspectRatio="xMidYMid meet">
<metadata>
Created by potrace 1.16, written by Peter Selinger 2001-2019
</metadata>
<g transform="translate(0.000000,455.000000) scale(0.100000,-0.100000)"
fill="#000000" stroke="none">
<path d="M3817 4543 c-3 -3 -351 -25 -467 -30 -58 -2 -248 -6 -422 -7 -213 -3
-329 -8 -355 -16 -93 -30 -187 -104 -244 -192 -13 -20 -58 -80 -99 -133 -143
-185 -190 -278 -190 -376 0 -35 -3 -39 -25 -39 -67 0 -246 -106 -306 -181 -40
-51 -69 -118 -76 -180 -4 -34 -18 -69 -42 -107 -72 -112 -92 -152 -102 -209
-16 -87 -135 -314 -205 -391 -150 -166 -466 -362 -583 -362 -66 0 -111 53
-111 130 0 41 19 69 63 95 9 6 18 21 19 35 3 24 0 25 -58 28 -115 5 -235 -62
-276 -156 -31 -69 -35 -167 -9 -251 29 -95 114 -189 199 -221 31 -12 67 -27
81 -35 33 -17 91 -31 160 -40 l53 -7 -4 -49 c-3 -31 -15 -64 -34 -91 -51 -75
-186 -227 -208 -234 -33 -11 -94 -6 -126 11 -39 20 -53 48 -52 111 0 65 24
104 86 133 59 27 63 37 22 51 -41 13 -73 8 -181 -28 -69 -24 -84 -33 -120 -77
-73 -90 -99 -239 -62 -357 15 -50 26 -65 86 -115 38 -32 70 -63 70 -69 1 -6
-9 -26 -22 -45 -18 -27 -30 -35 -61 -37 -49 -4 -80 23 -95 83 -14 54 -33 62
-71 27 -37 -33 -55 -114 -47 -211 6 -78 64 -201 131 -278 55 -61 170 -150 246
-188 64 -32 70 -39 70 -83 0 -41 -46 -92 -84 -92 -32 0 -69 14 -89 35 -19 18
-23 85 -7 114 7 14 4 23 -11 37 -20 18 -21 18 -40 -6 -90 -118 -62 -244 76
-347 39 -29 86 -61 105 -71 19 -11 61 -35 93 -55 82 -50 167 -67 335 -67 129
0 143 2 222 31 154 56 257 116 349 204 96 92 155 175 178 254 8 30 28 83 44
117 15 35 37 98 49 141 12 43 38 128 57 188 36 117 122 443 154 585 11 47 25
101 33 120 7 19 30 112 50 206 20 95 48 204 62 244 24 69 25 80 23 299 l-1
228 31 54 c17 30 31 57 31 61 0 3 23 44 52 90 28 46 69 113 90 150 37 63 45
70 136 121 96 54 97 54 127 38 23 -12 58 -16 150 -16 l120 0 84 44 c47 23 119
67 160 96 171 118 297 170 451 185 142 14 187 31 274 104 110 91 333 239 446
296 85 42 123 72 150 115 19 31 22 48 21 172 0 91 -5 156 -15 191 -8 30 -13
59 -10 66 9 24 -78 95 -154 127 -69 29 -81 30 -223 32 -83 1 -151 1 -152 0z"/>
</g>
</svg>
