<?xml version="1.0" standalone="no"?>
<!DOCTYPE svg PUBLIC "-//W3C//DTD SVG 20010904//EN"
 "http://www.w3.org/TR/2001/REC-SVG-20010904/DTD/svg10.dtd">
<svg version="1.0" xmlns="http://www.w3.org/2000/svg"
 width="367.000000pt" height="166.000000pt" viewBox="0 0 367.000000 166.000000"
 preserveAspectRatio="xMidYMid meet">
<metadata>
Created by potrace 1.16, written by Peter Selinger 2001-2019
</metadata>
<g transform="translate(0.000000,166.000000) scale(0.100000,-0.100000)"
fill="#000000" stroke="none">
<path d="M3025 1650 c-33 -4 -103 -16 -155 -26 -138 -26 -778 -26 -1025 0
-132 14 -230 17 -440 14 l-270 -3 -100 -36 c-166 -58 -381 -217 -401 -295 -3
-12 -18 -27 -32 -33 -75 -28 -203 -88 -248 -117 -124 -79 -233 -250 -320 -499
-23 -69 -28 -100 -32 -221 -4 -131 -2 -147 22 -227 54 -178 165 -229 431 -199
131 15 211 44 296 105 68 49 78 61 155 192 45 77 94 158 107 180 14 22 35 60
47 85 40 80 90 114 185 124 33 4 89 12 125 17 88 14 513 0 660 -21 36 -5 106
-14 155 -20 50 -6 137 -18 195 -27 128 -19 211 -13 315 21 138 47 247 64 385
61 120 -2 128 -3 169 -31 l43 -28 19 23 c11 13 19 33 19 45 -1 67 -116 261
-203 342 l-57 53 32 25 c80 62 220 164 298 216 69 46 100 61 165 76 44 9 86
22 93 27 18 14 15 41 -7 61 -25 23 -149 82 -214 101 -59 18 -313 27 -412 15z"/>
</g>
</svg>
