<?xml version="1.0" standalone="no"?>
<!DOCTYPE svg PUBLIC "-//W3C//DTD SVG 20010904//EN"
 "http://www.w3.org/TR/2001/REC-SVG-20010904/DTD/svg10.dtd">
<svg version="1.0" xmlns="http://www.w3.org/2000/svg"
 width="288.000000pt" height="246.000000pt" viewBox="0 0 288.000000 246.000000"
 preserveAspectRatio="xMidYMid meet">
<metadata>
Created by potrace 1.16, written by Peter Selinger 2001-2019
</metadata>
<g transform="translate(0.000000,246.000000) scale(0.100000,-0.100000)"
fill="#000000" stroke="none">
<path d="M2000 2449 c-13 -5 -39 -21 -58 -35 l-33 -26 -51 22 c-64 27 -128 23
-164 -11 -26 -25 -68 -108 -79 -158 -4 -20 -17 -37 -35 -46 -16 -8 -41 -26
-56 -40 -36 -33 -70 -32 -103 4 -19 20 -41 31 -72 36 -38 6 -48 12 -74 53 -63
96 -143 130 -232 99 -37 -13 -43 -12 -58 2 -11 11 -34 16 -75 16 -51 0 -63 -4
-89 -29 -17 -16 -38 -52 -47 -80 -10 -28 -25 -57 -36 -64 -23 -17 -48 -64 -48
-92 0 -37 -68 -165 -94 -180 -17 -9 -50 -11 -108 -8 -100 6 -163 -10 -213 -53
-42 -37 -95 -144 -95 -192 0 -33 15 -124 26 -159 4 -15 -1 -18 -28 -18 -78 0
-153 -65 -161 -138 -2 -18 -7 -35 -10 -39 -12 -12 -7 -80 7 -92 7 -6 16 -34
20 -61 5 -39 14 -57 43 -85 20 -20 47 -38 60 -41 15 -4 23 -13 23 -29 0 -12 9
-33 20 -47 19 -25 19 -26 0 -89 -17 -55 -19 -93 -18 -284 1 -219 13 -330 41
-365 49 -63 106 -65 225 -5 49 25 99 45 111 45 25 0 33 -18 62 -129 23 -88 40
-118 74 -127 53 -13 102 60 88 130 -3 15 -1 31 4 35 30 19 44 78 54 214 14
213 37 321 84 397 47 76 61 157 42 235 -7 28 -3 34 49 79 l56 49 47 -16 c89
-33 136 -19 229 67 l61 57 28 -52 c61 -113 111 -145 176 -114 55 26 81 72 117
203 11 42 12 44 43 38 22 -4 44 0 68 12 l36 18 74 -135 c73 -133 75 -136 115
-145 33 -7 48 -4 81 13 38 19 44 19 71 6 21 -11 37 -13 54 -6 30 11 40 25 61
80 23 61 79 151 93 151 7 0 24 -33 39 -74 31 -84 50 -105 118 -130 26 -10 70
-33 97 -52 137 -94 172 -35 109 183 -45 156 -44 146 -7 163 56 26 73 61 75
153 1 78 19 157 35 157 10 0 10 37 1 42 -5 2 -18 21 -29 43 -30 55 -83 85
-156 85 -72 0 -81 13 -60 80 15 46 14 50 -9 96 -32 65 -74 87 -149 79 -30 -3
-67 -12 -83 -20 -16 -8 -41 -12 -58 -8 -23 4 -29 11 -29 32 0 42 -36 160 -55
181 -9 10 -30 22 -47 25 -17 4 -33 16 -38 28 -21 56 -103 90 -160 66z"/>
</g>
</svg>
