<?xml version="1.0" standalone="no"?>
<!DOCTYPE svg PUBLIC "-//W3C//DTD SVG 20010904//EN"
 "http://www.w3.org/TR/2001/REC-SVG-20010904/DTD/svg10.dtd">
<svg version="1.0" xmlns="http://www.w3.org/2000/svg"
 width="176.000000pt" height="743.000000pt" viewBox="0 0 176.000000 743.000000"
 preserveAspectRatio="xMidYMid meet">
<metadata>
Created by potrace 1.16, written by Peter Selinger 2001-2019
</metadata>
<g transform="translate(0.000000,743.000000) scale(0.100000,-0.100000)"
fill="#000000" stroke="none">
<path d="M950 7411 c-36 -9 -114 -43 -174 -76 -91 -50 -121 -73 -185 -142
-119 -129 -261 -381 -317 -568 -80 -259 -99 -416 -99 -785 1 -205 5 -278 20
-370 17 -97 19 -148 15 -330 -6 -265 -6 -802 -1 -1215 3 -170 2 -326 -2 -345
-3 -19 -9 -60 -12 -90 -3 -30 -9 -75 -12 -100 -3 -25 -7 -58 -8 -75 -1 -16 -4
-55 -8 -85 -10 -86 -19 -180 -22 -240 -1 -30 -5 -71 -8 -90 -4 -19 -9 -79 -11
-133 -3 -54 -7 -101 -10 -105 -7 -12 -26 -190 -31 -291 -3 -53 -7 -107 -10
-121 -6 -31 -17 -130 -17 -150 0 -13 -4 -44 -23 -210 -16 -132 -26 -400 -32
-826 -4 -303 -3 -418 7 -470 7 -38 16 -73 20 -79 5 -5 9 -14 9 -20 1 -17 35
-90 46 -97 5 -4 7 -8 3 -8 -8 0 47 -82 82 -124 55 -63 96 -100 153 -135 21
-12 44 -30 52 -38 8 -8 15 -12 15 -9 0 4 19 -4 43 -16 23 -12 47 -23 52 -24 6
-2 40 -12 77 -23 56 -16 90 -19 200 -16 73 1 140 5 148 7 8 3 35 10 60 17 56
16 179 74 207 98 53 45 63 53 63 48 0 -8 54 49 95 100 22 28 42 52 45 55 14
13 60 91 60 100 0 6 11 30 23 53 13 23 24 44 24 47 0 3 5 21 11 40 21 67 31
176 27 300 -3 121 -12 252 -21 294 -2 12 -7 37 -10 56 -3 19 -8 49 -10 65 -3
17 -11 68 -19 115 -7 47 -15 94 -18 105 -3 11 -8 43 -11 70 -4 28 -9 57 -11
65 -2 8 -9 62 -15 120 -15 140 -19 170 -25 200 -29 137 -37 217 -50 497 -3 67
-8 131 -10 141 -2 11 -6 127 -10 258 -4 132 -8 266 -10 299 -1 33 -6 146 -10
250 -4 105 -9 215 -11 245 -2 30 -6 183 -8 340 -6 308 0 408 54 922 43 422 49
447 120 576 33 59 60 113 60 120 0 7 14 41 32 75 17 34 47 105 65 157 19 52
45 124 57 160 13 36 27 90 31 120 3 30 13 80 20 110 8 30 17 117 21 193 4 75
11 137 16 137 11 0 11 177 0 182 -5 2 -18 42 -30 90 -31 129 -81 236 -160 340
-110 145 -180 201 -301 238 -79 25 -218 25 -311 1z"/>
</g>
</svg>
