<?xml version="1.0" standalone="no"?>
<!DOCTYPE svg PUBLIC "-//W3C//DTD SVG 20010904//EN"
 "http://www.w3.org/TR/2001/REC-SVG-20010904/DTD/svg10.dtd">
<svg version="1.0" xmlns="http://www.w3.org/2000/svg"
 width="155.000000pt" height="741.000000pt" viewBox="0 0 155.000000 741.000000"
 preserveAspectRatio="xMidYMid meet">
<metadata>
Created by potrace 1.16, written by Peter Selinger 2001-2019
</metadata>
<g transform="translate(0.000000,741.000000) scale(0.100000,-0.100000)"
fill="#000000" stroke="none">
<path d="M1026 7402 c-3 -2 -18 -6 -33 -7 -49 -6 -127 -39 -178 -77 -48 -34
-142 -128 -130 -128 3 0 -6 -17 -19 -38 -23 -37 -28 -53 -41 -134 -3 -18 -10
-55 -15 -83 -6 -27 -13 -72 -16 -100 -3 -27 -11 -75 -19 -105 -7 -30 -16 -75
-20 -100 -4 -25 -9 -58 -12 -75 -2 -16 -6 -46 -9 -65 -2 -19 -6 -48 -8 -65 -3
-16 -8 -66 -12 -110 -3 -44 -10 -89 -14 -100 -4 -11 -6 -31 -5 -45 1 -14 0
-29 -3 -35 -4 -5 -7 -16 -7 -25 -4 -40 -17 -168 -20 -190 -2 -14 -6 -47 -9
-75 -4 -27 -9 -68 -11 -90 -3 -22 -10 -67 -15 -100 -5 -33 -12 -89 -15 -125
-3 -36 -10 -99 -15 -140 -6 -41 -12 -100 -15 -130 -3 -30 -8 -69 -10 -87 -3
-17 -9 -73 -15 -125 -5 -51 -14 -129 -20 -173 -14 -116 -32 -282 -36 -340 -1
-27 -5 -68 -8 -90 -4 -22 -8 -69 -11 -105 -3 -36 -7 -76 -10 -90 -4 -24 -17
-149 -30 -290 -3 -36 -10 -96 -15 -135 -6 -38 -13 -104 -16 -145 -3 -41 -6
-84 -8 -95 -2 -11 -6 -51 -10 -90 -4 -38 -10 -88 -13 -110 -3 -22 -7 -53 -8
-70 -1 -16 -4 -55 -8 -85 -10 -86 -19 -180 -22 -240 -1 -30 -5 -71 -8 -90 -4
-19 -9 -79 -11 -133 -3 -54 -7 -101 -10 -105 -7 -12 -26 -190 -31 -291 -3 -53
-7 -107 -10 -121 -6 -31 -17 -130 -17 -150 0 -13 -4 -44 -23 -210 -16 -132
-26 -400 -32 -826 -4 -303 -3 -418 7 -470 7 -38 16 -73 20 -79 5 -5 8 -12 7
-15 -3 -9 37 -95 48 -102 5 -4 7 -8 3 -8 -8 0 47 -82 82 -124 55 -63 96 -100
153 -135 21 -12 44 -30 52 -38 8 -8 15 -12 15 -9 0 4 19 -4 43 -16 23 -12 47
-23 52 -24 6 -2 40 -12 77 -23 56 -16 90 -19 200 -16 73 1 140 5 148 7 8 3 35
10 60 17 56 16 179 74 207 98 53 45 63 53 63 48 0 -8 54 49 95 100 22 28 42
52 45 55 14 13 60 91 60 100 0 6 12 32 26 58 15 26 26 49 25 52 0 3 3 19 8 35
20 62 30 174 26 295 -3 121 -12 252 -21 294 -2 12 -7 37 -10 56 -3 19 -8 49
-10 65 -3 17 -11 68 -19 115 -7 47 -15 94 -18 105 -3 11 -8 43 -11 70 -4 28
-9 57 -11 65 -2 8 -9 62 -15 120 -15 140 -19 170 -25 200 -29 136 -37 218 -50
496 -3 67 -8 132 -10 145 -2 13 -6 121 -9 239 -3 118 -8 265 -11 325 -3 61 -7
160 -10 220 -2 61 -8 187 -12 280 -14 297 -7 920 11 1025 3 14 8 75 11 135 8
131 10 149 19 240 4 39 9 90 11 115 5 51 42 376 50 430 4 33 21 197 30 305 6
57 23 190 30 226 3 13 7 47 10 74 3 28 7 61 9 75 3 14 8 52 11 85 3 33 8 71
10 85 11 56 13 68 20 125 4 33 9 69 12 80 2 11 7 52 10 90 3 39 11 73 17 78 8
5 6 10 -4 17 -10 6 -11 10 -2 10 8 0 12 20 12 65 0 45 -4 65 -12 65 -10 0 -9
3 1 9 9 6 10 10 2 12 -6 2 -14 17 -17 33 -3 16 -7 33 -10 38 -3 4 -7 17 -9 28
-9 47 -72 129 -155 204 -16 14 -76 47 -85 46 -3 0 -19 7 -35 15 -16 8 -31 15
-32 14 -2 0 -19 2 -39 6 -49 9 -127 13 -133 7z"/>
</g>
</svg>
