<?xml version="1.0" standalone="no"?>
<!DOCTYPE svg PUBLIC "-//W3C//DTD SVG 20010904//EN"
 "http://www.w3.org/TR/2001/REC-SVG-20010904/DTD/svg10.dtd">
<svg version="1.0" xmlns="http://www.w3.org/2000/svg"
 width="274.000000pt" height="351.000000pt" viewBox="0 0 274.000000 351.000000"
 preserveAspectRatio="xMidYMid meet">
<metadata>
Created by potrace 1.16, written by Peter Selinger 2001-2019
</metadata>
<g transform="translate(0.000000,351.000000) scale(0.100000,-0.100000)"
fill="#000000" stroke="none">
<path d="M1280 3498 c-310 -25 -547 -139 -898 -431 -188 -157 -322 -371 -367
-589 -30 -142 -13 -951 23 -1063 37 -119 162 -284 494 -652 152 -168 389 -407
507 -510 209 -183 359 -246 586 -247 107 -1 128 2 194 26 246 91 448 297 665
677 148 258 198 398 227 634 6 53 15 97 20 97 5 0 9 128 9 285 0 183 -4 285
-10 285 -5 0 -10 19 -10 43 0 23 -7 101 -15 172 -9 72 -20 167 -25 211 -12
100 -50 249 -91 355 -66 170 -178 293 -404 445 -129 86 -234 136 -400 192
-197 67 -323 84 -505 70z"/>
</g>
</svg>
