<?xml version="1.0" standalone="no"?>
<!DOCTYPE svg PUBLIC "-//W3C//DTD SVG 20010904//EN"
 "http://www.w3.org/TR/2001/REC-SVG-20010904/DTD/svg10.dtd">
<svg version="1.0" xmlns="http://www.w3.org/2000/svg"
 width="274.000000pt" height="355.000000pt" viewBox="0 0 274.000000 355.000000"
 preserveAspectRatio="xMidYMid meet">
<metadata>
Created by potrace 1.16, written by Peter Selinger 2001-2019
</metadata>
<g transform="translate(0.000000,355.000000) scale(0.100000,-0.100000)"
fill="#000000" stroke="none">
<path d="M1280 3538 c-310 -25 -547 -139 -898 -431 -139 -116 -271 -296 -323
-439 -55 -149 -59 -190 -59 -541 1 -298 11 -486 39 -712 11 -91 84 -260 166
-385 34 -52 84 -129 110 -170 186 -291 451 -540 785 -735 198 -116 228 -125
445 -125 255 0 356 40 524 208 202 203 280 305 415 541 148 258 198 398 227
634 6 53 15 97 20 97 5 0 9 128 9 285 0 183 -4 285 -10 285 -5 0 -10 19 -10
43 0 23 -7 101 -15 172 -9 72 -20 167 -25 211 -12 100 -50 249 -91 355 -66
170 -178 293 -404 445 -129 86 -234 136 -400 192 -197 67 -323 84 -505 70z"/>
</g>
</svg>
