<?xml version="1.0" standalone="no"?>
<!DOCTYPE svg PUBLIC "-//W3C//DTD SVG 20010904//EN"
 "http://www.w3.org/TR/2001/REC-SVG-20010904/DTD/svg10.dtd">
<svg version="1.0" xmlns="http://www.w3.org/2000/svg"
 width="365.000000pt" height="124.000000pt" viewBox="0 0 365.000000 124.000000"
 preserveAspectRatio="xMidYMid meet">
<metadata>
Created by potrace 1.16, written by Peter Selinger 2001-2019
</metadata>
<g transform="translate(0.000000,124.000000) scale(0.100000,-0.100000)"
fill="#000000" stroke="none">
<path d="M47 1229 c-43 -25 -61 -128 -31 -184 9 -16 17 -55 18 -85 2 -51 28
-170 63 -285 8 -27 37 -87 65 -133 46 -76 55 -85 106 -108 79 -35 221 -71 382
-98 491 -82 501 -84 668 -160 140 -64 315 -120 432 -139 102 -15 277 -14 379
3 87 15 227 61 290 96 44 24 45 24 65 5 44 -40 105 -71 205 -107 100 -35 107
-36 210 -32 262 12 508 129 633 301 56 76 74 111 89 170 6 26 15 47 20 47 5 0
9 43 9 95 0 52 -3 95 -7 95 -5 0 -16 19 -26 43 -22 53 -40 74 -97 115 -67 48
-145 65 -260 57 -82 -5 -223 -37 -298 -66 -32 -13 -66 -11 -80 3 -7 7 -36 12
-65 12 -53 0 -114 -23 -189 -72 l-36 -24 -139 46 c-224 73 -278 80 -494 69
-101 -6 -321 -10 -489 -9 -331 2 -365 6 -650 82 -52 13 -127 33 -165 44 -39
10 -96 30 -127 44 -31 14 -64 26 -73 26 -9 0 -35 9 -58 21 -23 11 -60 27 -82
35 -21 8 -60 28 -85 44 -42 27 -129 60 -155 60 -5 -1 -18 -5 -28 -11z"/>
</g>
</svg>
