<?xml version="1.0" standalone="no"?>
<!DOCTYPE svg PUBLIC "-//W3C//DTD SVG 20010904//EN"
 "http://www.w3.org/TR/2001/REC-SVG-20010904/DTD/svg10.dtd">
<svg version="1.0" xmlns="http://www.w3.org/2000/svg"
 width="385.000000pt" height="125.000000pt" viewBox="0 0 385.000000 125.000000"
 preserveAspectRatio="xMidYMid meet">
<metadata>
Created by potrace 1.16, written by Peter Selinger 2001-2019
</metadata>
<g transform="translate(0.000000,125.000000) scale(0.100000,-0.100000)"
fill="#000000" stroke="none">
<path d="M25 1211 c-26 -39 -27 -43 -20 -138 7 -114 9 -184 6 -307 -1 -76 3
-100 26 -160 46 -121 56 -133 121 -146 56 -10 80 -16 252 -66 98 -28 153 -41
265 -59 261 -43 447 -77 493 -90 29 -9 105 -40 170 -69 147 -67 316 -121 452
-142 200 -32 483 -7 630 55 101 42 94 42 140 11 23 -15 90 -45 147 -65 l104
-37 252 4 c229 4 258 6 322 27 236 77 398 244 449 461 21 87 21 262 0 326 -37
117 -44 120 -228 123 -252 4 -490 -27 -624 -80 -32 -13 -66 -11 -80 3 -7 7
-36 12 -65 12 -53 0 -114 -23 -189 -72 l-36 -24 -139 46 c-224 73 -278 80
-494 69 -101 -6 -321 -10 -489 -9 -331 2 -365 6 -650 82 -52 13 -127 33 -165
44 -39 10 -96 30 -127 44 -31 14 -64 26 -73 26 -9 0 -40 11 -68 24 -29 14 -77
36 -107 50 -30 14 -77 39 -105 55 -27 16 -71 32 -97 35 -46 7 -47 7 -73 -33z"/>
</g>
</svg>
