<?xml version="1.0" standalone="no"?>
<!DOCTYPE svg PUBLIC "-//W3C//DTD SVG 20010904//EN"
 "http://www.w3.org/TR/2001/REC-SVG-20010904/DTD/svg10.dtd">
<svg version="1.0" xmlns="http://www.w3.org/2000/svg"
 width="379.000000pt" height="121.000000pt" viewBox="0 0 379.000000 121.000000"
 preserveAspectRatio="xMidYMid meet">
<metadata>
Created by potrace 1.16, written by Peter Selinger 2001-2019
</metadata>
<g transform="translate(0.000000,121.000000) scale(0.100000,-0.100000)"
fill="#000000" stroke="none">
<path d="M71 1192 c-19 -15 -23 -31 -27 -107 -3 -49 -13 -105 -21 -125 -20
-45 -28 -255 -15 -365 14 -102 37 -127 138 -144 37 -7 83 -19 103 -27 63 -26
220 -65 361 -88 491 -82 501 -84 668 -160 235 -108 448 -159 667 -160 121 -1
156 3 260 28 66 15 132 34 146 42 15 7 45 20 67 27 39 14 43 13 83 -13 23 -16
89 -45 146 -65 l104 -37 252 4 c229 4 258 6 322 27 236 77 398 244 449 461 18
76 21 250 5 317 -28 116 -36 122 -207 130 -234 11 -506 -22 -650 -78 -32 -13
-66 -11 -80 3 -7 7 -36 12 -65 12 -53 0 -114 -23 -189 -72 l-36 -24 -139 46
c-224 73 -278 80 -494 69 -101 -6 -321 -10 -489 -9 -331 2 -365 6 -650 82 -52
13 -127 33 -165 44 -39 10 -96 30 -127 44 -31 14 -64 26 -73 26 -9 0 -40 11
-68 24 -125 59 -164 77 -187 91 -33 20 -63 19 -89 -3z"/>
</g>
</svg>
