<?xml version="1.0" standalone="no"?>
<!DOCTYPE svg PUBLIC "-//W3C//DTD SVG 20010904//EN"
 "http://www.w3.org/TR/2001/REC-SVG-20010904/DTD/svg10.dtd">
<svg version="1.0" xmlns="http://www.w3.org/2000/svg"
 width="180.000000pt" height="130.000000pt" viewBox="0 0 180.000000 130.000000"
 preserveAspectRatio="xMidYMid meet">
<metadata>
Created by potrace 1.16, written by Peter Selinger 2001-2019
</metadata>
<g transform="translate(0.000000,130.000000) scale(0.100000,-0.100000)"
fill="#000000" stroke="none">
<path d="M540 1280 c-76 -16 -148 -48 -206 -90 -37 -27 -153 -179 -185 -243
-77 -151 -127 -334 -146 -528 -4 -49 -2 -59 19 -84 27 -31 57 -31 93 2 38 35
114 73 176 89 48 12 87 15 173 9 321 -18 594 -83 776 -182 70 -38 286 -184
335 -227 65 -57 113 -16 156 133 55 189 77 494 44 616 -41 154 -107 246 -248
345 -79 55 -187 95 -406 149 -117 29 -134 31 -310 30 -141 0 -207 -5 -271 -19z"/>
</g>
</svg>
