<?xml version="1.0" standalone="no"?>
<!DOCTYPE svg PUBLIC "-//W3C//DTD SVG 20010904//EN"
 "http://www.w3.org/TR/2001/REC-SVG-20010904/DTD/svg10.dtd">
<svg version="1.0" xmlns="http://www.w3.org/2000/svg"
 width="152.000000pt" height="130.000000pt" viewBox="0 0 152.000000 130.000000"
 preserveAspectRatio="xMidYMid meet">
<metadata>
Created by potrace 1.16, written by Peter Selinger 2001-2019
</metadata>
<g transform="translate(0.000000,130.000000) scale(0.100000,-0.100000)"
fill="#000000" stroke="none">
<path d="M258 1280 c-139 -29 -197 -82 -235 -213 -21 -72 -23 -99 -23 -297 l0
-218 33 -48 c41 -60 73 -73 184 -73 111 -1 282 -26 428 -62 137 -34 222 -65
315 -116 70 -38 286 -184 335 -227 65 -57 113 -16 156 133 55 189 77 494 44
616 -41 154 -107 246 -248 345 -79 55 -187 95 -406 149 -117 29 -134 31 -310
30 -140 0 -208 -5 -273 -19z"/>
</g>
</svg>
