<?xml version="1.0" standalone="no"?>
<!DOCTYPE svg PUBLIC "-//W3C//DTD SVG 20010904//EN"
 "http://www.w3.org/TR/2001/REC-SVG-20010904/DTD/svg10.dtd">
<svg version="1.0" xmlns="http://www.w3.org/2000/svg"
 width="194.000000pt" height="984.000000pt" viewBox="0 0 194.000000 984.000000"
 preserveAspectRatio="xMidYMid meet">
<metadata>
Created by potrace 1.16, written by Peter Selinger 2001-2019
</metadata>
<g transform="translate(0.000000,984.000000) scale(0.100000,-0.100000)"
fill="#000000" stroke="none">
<path d="M980 9833 c-299 -22 -529 -204 -606 -478 -19 -70 -21 -175 -53 -2845
-11 -927 -23 -1801 -26 -1944 l-6 -259 -63 -116 c-92 -172 -161 -324 -196
-434 l-32 -98 5 -302 c3 -166 7 -318 10 -337 4 -19 11 -84 17 -145 7 -60 27
-216 47 -345 68 -458 63 -298 59 -1740 -1 -366 0 -399 18 -444 26 -66 89 -134
153 -162 66 -30 237 -75 433 -114 378 -77 872 -91 1045 -31 66 23 135 85 135
121 0 11 5 20 10 20 6 0 10 16 10 35 0 19 -4 35 -9 35 -5 0 -12 17 -16 38 -14
74 -102 233 -180 325 -18 21 -48 72 -66 115 l-34 77 1 350 c0 193 8 485 17
650 35 632 52 1180 66 2230 6 440 9 506 25 550 18 53 28 170 46 545 5 118 14
260 20 315 22 213 30 714 30 1830 0 1214 1 1170 -45 1548 -9 70 -22 171 -31
225 -8 53 -19 138 -24 187 -20 183 -73 299 -190 416 -59 58 -97 86 -161 118
-127 62 -226 78 -409 64z"/>
</g>
</svg>
