<?xml version="1.0" standalone="no"?>
<!DOCTYPE svg PUBLIC "-//W3C//DTD SVG 20010904//EN"
 "http://www.w3.org/TR/2001/REC-SVG-20010904/DTD/svg10.dtd">
<svg version="1.0" xmlns="http://www.w3.org/2000/svg"
 width="195.000000pt" height="983.000000pt" viewBox="0 0 195.000000 983.000000"
 preserveAspectRatio="xMidYMid meet">
<metadata>
Created by potrace 1.16, written by Peter Selinger 2001-2019
</metadata>
<g transform="translate(0.000000,983.000000) scale(0.100000,-0.100000)"
fill="#000000" stroke="none">
<path d="M845 9811 c-232 -57 -406 -226 -471 -456 -19 -70 -21 -175 -53 -2845
-11 -927 -23 -1801 -26 -1944 l-6 -259 -63 -116 c-92 -172 -161 -324 -196
-434 l-32 -98 5 -302 c3 -166 7 -318 10 -337 4 -19 11 -84 17 -145 7 -60 27
-216 47 -345 68 -458 63 -298 59 -1740 -1 -366 0 -399 18 -444 26 -66 89 -134
153 -162 66 -30 237 -75 433 -114 378 -77 872 -91 1045 -31 66 23 135 85 135
121 0 11 7 20 15 20 10 0 15 11 15 35 0 23 -5 35 -14 35 -8 0 -17 16 -21 37
-14 75 -102 234 -180 326 -18 21 -48 72 -66 115 l-34 77 1 350 c0 193 8 485
17 650 38 674 50 1118 66 2375 10 819 8 1338 -8 1505 -9 107 -31 756 -46 1405
-3 129 -10 359 -15 510 -8 244 -13 439 -35 1343 -8 310 -36 496 -93 600 -40
74 -147 168 -244 216 -141 70 -290 88 -433 52z"/>
</g>
</svg>
