<?xml version="1.0" standalone="no"?>
<!DOCTYPE svg PUBLIC "-//W3C//DTD SVG 20010904//EN"
 "http://www.w3.org/TR/2001/REC-SVG-20010904/DTD/svg10.dtd">
<svg version="1.0" xmlns="http://www.w3.org/2000/svg"
 width="137.000000pt" height="46.000000pt" viewBox="0 0 137.000000 46.000000"
 preserveAspectRatio="xMidYMid meet">
<metadata>
Created by potrace 1.16, written by Peter Selinger 2001-2019
</metadata>
<g transform="translate(0.000000,46.000000) scale(0.100000,-0.100000)"
fill="#000000" stroke="none">
<path d="M135 447 c-43 -20 -90 -62 -115 -103 -19 -30 -22 -46 -18 -123 3 -82
5 -92 34 -128 17 -21 55 -51 85 -66 45 -24 63 -28 111 -25 75 5 142 47 183
113 26 42 30 58 30 121 0 64 -3 77 -30 115 -50 71 -101 101 -182 106 -44 2
-78 -1 -98 -10z"/>
<path d="M1033 439 c-82 -40 -133 -121 -133 -209 0 -123 107 -229 231 -230 87
0 196 78 215 157 4 13 10 23 15 23 5 0 9 23 9 50 0 28 -4 50 -9 50 -5 0 -11
14 -15 30 -8 42 -93 126 -142 139 -61 17 -125 13 -171 -10z"/>
</g>
</svg>
