<?xml version="1.0" standalone="no"?>
<!DOCTYPE svg PUBLIC "-//W3C//DTD SVG 20010904//EN"
 "http://www.w3.org/TR/2001/REC-SVG-20010904/DTD/svg10.dtd">
<svg version="1.0" xmlns="http://www.w3.org/2000/svg"
 width="25.000000pt" height="107.000000pt" viewBox="0 0 25.000000 107.000000"
 preserveAspectRatio="xMidYMid meet">
<metadata>
Created by potrace 1.16, written by Peter Selinger 2001-2019
</metadata>
<g transform="translate(0.000000,107.000000) scale(0.100000,-0.100000)"
fill="#000000" stroke="none">
<path d="M66 1045 c-16 -15 -26 -35 -26 -52 0 -15 -9 -192 -20 -393 -11 -201
-20 -406 -20 -457 0 -90 0 -91 32 -118 35 -29 76 -29 109 1 40 36 78 214 86
402 3 72 10 132 14 132 5 0 9 65 9 145 0 80 -4 145 -9 145 -5 0 -12 35 -16 77
-4 42 -12 86 -17 99 -22 47 -100 58 -142 19z"/>
</g>
</svg>
