<?xml version="1.0" standalone="no"?>
<!DOCTYPE svg PUBLIC "-//W3C//DTD SVG 20010904//EN"
 "http://www.w3.org/TR/2001/REC-SVG-20010904/DTD/svg10.dtd">
<svg version="1.0" xmlns="http://www.w3.org/2000/svg"
 width="181.000000pt" height="983.000000pt" viewBox="0 0 181.000000 983.000000"
 preserveAspectRatio="xMidYMid meet">
<metadata>
Created by potrace 1.16, written by Peter Selinger 2001-2019
</metadata>
<g transform="translate(0.000000,983.000000) scale(0.100000,-0.100000)"
fill="#000000" stroke="none">
<path d="M715 9812 c-191 -49 -341 -168 -424 -337 -63 -127 -63 -129 -72 -735
-13 -864 -50 -3862 -50 -3990 1 -277 -18 -1084 -27 -1180 -14 -130 -30 -366
-42 -615 -5 -104 -16 -291 -24 -415 -9 -124 -20 -337 -26 -475 -14 -365 -28
-647 -41 -840 -6 -93 -9 -321 -7 -505 3 -325 4 -337 26 -385 31 -67 86 -122
149 -151 66 -30 235 -74 433 -114 378 -77 872 -91 1045 -31 66 23 135 85 135
121 0 11 5 20 10 20 6 0 10 16 10 35 0 19 -4 35 -9 35 -5 0 -12 17 -16 37 -14
75 -102 234 -180 326 -18 21 -48 72 -66 115 l-34 77 1 350 c0 193 8 485 17
650 38 674 50 1118 66 2375 10 819 8 1338 -8 1505 -9 107 -31 756 -46 1405 -3
129 -10 359 -15 510 -8 244 -14 453 -35 1345 -3 136 -12 265 -21 315 -44 245
-62 287 -170 389 -153 146 -388 212 -579 163z"/>
</g>
</svg>
