<?xml version="1.0" standalone="no"?>
<!DOCTYPE svg PUBLIC "-//W3C//DTD SVG 20010904//EN"
 "http://www.w3.org/TR/2001/REC-SVG-20010904/DTD/svg10.dtd">
<svg version="1.0" xmlns="http://www.w3.org/2000/svg"
 width="195.000000pt" height="986.000000pt" viewBox="0 0 195.000000 986.000000"
 preserveAspectRatio="xMidYMid meet">
<metadata>
Created by potrace 1.16, written by Peter Selinger 2001-2019
</metadata>
<g transform="translate(0.000000,986.000000) scale(0.100000,-0.100000)"
fill="#000000" stroke="none">
<path d="M721 9849 c-198 -39 -381 -159 -491 -323 -43 -65 -115 -226 -134
-301 -23 -93 -64 -319 -78 -430 -8 -69 -12 -291 -13 -725 0 -587 7 -830 35
-1190 5 -74 14 -198 19 -275 12 -164 39 -368 88 -660 72 -433 125 -811 147
-1050 12 -132 13 -252 6 -695 -5 -294 -13 -578 -19 -630 -12 -114 -29 -368
-41 -620 -5 -102 -16 -286 -24 -410 -9 -124 -20 -337 -26 -475 -14 -365 -28
-647 -41 -840 -6 -93 -9 -321 -7 -505 3 -325 4 -337 26 -385 31 -67 86 -122
149 -151 66 -30 235 -74 433 -114 378 -77 872 -91 1045 -31 66 23 135 85 135
121 0 11 5 20 10 20 6 0 10 16 10 35 0 19 -4 35 -9 35 -5 0 -12 17 -16 38 -14
74 -102 233 -180 325 -18 21 -48 72 -66 115 l-34 77 1 350 c0 193 8 485 17
650 38 674 50 1118 66 2375 10 819 8 1338 -8 1505 -9 107 -31 756 -46 1405 -3
129 -10 359 -15 510 -8 244 -13 444 -35 1345 -8 311 -36 493 -93 598 -36 67
-143 165 -230 210 -110 58 -315 107 -440 106 -54 -1 -117 -5 -141 -10z"/>
</g>
</svg>
