<?xml version="1.0" standalone="no"?>
<!DOCTYPE svg PUBLIC "-//W3C//DTD SVG 20010904//EN"
 "http://www.w3.org/TR/2001/REC-SVG-20010904/DTD/svg10.dtd">
<svg version="1.0" xmlns="http://www.w3.org/2000/svg"
 width="195.000000pt" height="986.000000pt" viewBox="0 0 195.000000 986.000000"
 preserveAspectRatio="xMidYMid meet">
<metadata>
Created by potrace 1.16, written by Peter Selinger 2001-2019
</metadata>
<g transform="translate(0.000000,986.000000) scale(0.100000,-0.100000)"
fill="#000000" stroke="none">
<path d="M721 9849 c-198 -39 -381 -159 -491 -323 -43 -65 -115 -226 -134
-301 -23 -93 -64 -319 -78 -430 -8 -69 -12 -291 -13 -725 0 -587 7 -830 35
-1190 5 -74 14 -198 19 -275 12 -164 39 -368 88 -660 140 -834 193 -1358 147
-1447 -14 -28 -15 -43 -5 -110 l11 -79 -63 -117 c-88 -163 -160 -320 -198
-432 -33 -95 -33 -96 -35 -310 -1 -118 2 -249 6 -290 5 -41 11 -104 15 -140
19 -190 39 -345 66 -520 64 -416 59 -273 55 -1710 -1 -366 0 -399 18 -444 26
-66 89 -134 153 -162 66 -30 237 -75 433 -114 378 -77 872 -91 1045 -31 66 23
135 85 135 121 0 11 5 20 10 20 6 0 10 16 10 35 0 19 -4 35 -9 35 -5 0 -12 17
-16 38 -14 74 -102 233 -180 325 -18 21 -48 72 -66 115 l-34 77 1 350 c0 193
8 485 17 650 38 674 50 1118 66 2375 10 819 8 1338 -8 1505 -9 107 -31 756
-46 1405 -3 129 -10 359 -15 510 -8 244 -13 439 -35 1343 -8 310 -36 496 -93
600 -36 67 -143 165 -230 210 -110 58 -315 107 -440 106 -54 -1 -117 -5 -141
-10z"/>
</g>
</svg>
