<?xml version="1.0" standalone="no"?>
<!DOCTYPE svg PUBLIC "-//W3C//DTD SVG 20010904//EN"
 "http://www.w3.org/TR/2001/REC-SVG-20010904/DTD/svg10.dtd">
<svg version="1.0" xmlns="http://www.w3.org/2000/svg"
 width="158.000000pt" height="152.000000pt" viewBox="0 0 158.000000 152.000000"
 preserveAspectRatio="xMidYMid meet">
<metadata>
Created by potrace 1.16, written by Peter Selinger 2001-2019
</metadata>
<g transform="translate(0.000000,152.000000) scale(0.100000,-0.100000)"
fill="#000000" stroke="none">
<path d="M930 1508 c-11 -4 -20 -5 -20 -1 0 3 -7 0 -15 -7 -8 -7 -15 -10 -15
-6 0 12 -85 -46 -117 -80 -18 -19 -31 -34 -28 -34 3 0 0 -10 -7 -22 -37 -68
-30 -195 16 -310 27 -67 27 -88 1 -88 -7 0 -35 -20 -62 -44 -46 -42 -50 -43
-78 -32 -52 22 -191 6 -231 -25 -6 -5 -26 -7 -45 -4 -161 25 -244 -15 -306
-146 -23 -51 -25 -61 -20 -179 3 -82 10 -141 21 -172 22 -60 133 -190 177
-208 19 -8 37 -18 40 -23 6 -9 168 -66 207 -73 30 -5 62 -11 92 -18 158 -36
312 -39 510 -10 79 12 213 65 284 113 101 69 189 177 202 248 3 14 9 34 14 44
6 10 10 38 10 63 0 26 5 46 13 49 9 4 8 8 -3 16 -13 10 -13 11 0 11 13 0 13 1
0 10 -13 9 -13 11 0 20 13 9 13 11 0 20 -13 9 -13 10 0 10 10 0 11 3 4 8 -6 4
-17 25 -24 47 -18 57 -65 128 -113 170 -34 30 -41 42 -39 68 2 17 8 35 15 39
9 6 9 8 0 8 -9 0 -13 15 -13 44 0 127 -68 287 -162 379 -32 31 -65 57 -73 57
-7 0 -20 7 -29 15 -35 36 -157 61 -206 43z"/>
</g>
</svg>
