<?xml version="1.0" standalone="no"?>
<!DOCTYPE svg PUBLIC "-//W3C//DTD SVG 20010904//EN"
 "http://www.w3.org/TR/2001/REC-SVG-20010904/DTD/svg10.dtd">
<svg version="1.0" xmlns="http://www.w3.org/2000/svg"
 width="178.000000pt" height="220.000000pt" viewBox="0 0 178.000000 220.000000"
 preserveAspectRatio="xMidYMid meet">
<metadata>
Created by potrace 1.16, written by Peter Selinger 2001-2019
</metadata>
<g transform="translate(0.000000,220.000000) scale(0.100000,-0.100000)"
fill="#000000" stroke="none">
<path d="M991 2185 c-118 -27 -266 -111 -353 -202 -36 -36 -93 -149 -143 -277
-13 -34 -42 -106 -65 -161 -22 -54 -61 -153 -85 -220 -59 -164 -128 -306 -230
-475 -47 -79 -92 -166 -100 -194 -40 -134 2 -257 128 -377 140 -135 250 -194
465 -249 96 -25 137 -30 230 -30 105 0 120 3 210 36 78 28 105 43 137 78 85
90 223 352 318 601 25 66 76 197 112 290 75 189 145 395 145 425 0 11 5 20 10
20 6 0 10 37 10 90 0 53 -4 90 -10 90 -5 0 -10 11 -10 24 0 51 -51 186 -98
257 -80 122 -196 210 -336 257 -91 30 -243 38 -335 17z"/>
</g>
</svg>
