<?xml version="1.0" standalone="no"?>
<!DOCTYPE svg PUBLIC "-//W3C//DTD SVG 20010904//EN"
 "http://www.w3.org/TR/2001/REC-SVG-20010904/DTD/svg10.dtd">
<svg version="1.0" xmlns="http://www.w3.org/2000/svg"
 width="207.000000pt" height="226.000000pt" viewBox="0 0 207.000000 226.000000"
 preserveAspectRatio="xMidYMid meet">
<metadata>
Created by potrace 1.16, written by Peter Selinger 2001-2019
</metadata>
<g transform="translate(0.000000,226.000000) scale(0.100000,-0.100000)"
fill="#000000" stroke="none">
<path d="M1120 2240 c-313 -48 -445 -133 -528 -342 -23 -57 -44 -116 -48 -133
-14 -60 -123 -287 -180 -376 -24 -38 -106 -130 -197 -221 -98 -97 -158 -165
-163 -182 -15 -62 4 -157 51 -254 68 -142 137 -234 280 -377 115 -115 142
-137 235 -187 110 -59 183 -88 337 -133 79 -22 111 -26 220 -26 118 1 168 7
323 41 91 20 171 64 229 125 59 62 90 126 115 235 29 127 57 230 97 361 22 70
43 148 48 175 6 27 16 68 25 90 8 23 20 77 26 120 22 146 64 359 72 362 11 5
10 162 0 162 -5 0 -14 29 -21 64 -26 129 -118 269 -236 358 -77 59 -117 78
-240 118 -130 41 -264 48 -445 20z"/>
</g>
</svg>
