<?xml version="1.0" standalone="no"?>
<!DOCTYPE svg PUBLIC "-//W3C//DTD SVG 20010904//EN"
 "http://www.w3.org/TR/2001/REC-SVG-20010904/DTD/svg10.dtd">
<svg version="1.0" xmlns="http://www.w3.org/2000/svg"
 width="168.000000pt" height="116.000000pt" viewBox="0 0 168.000000 116.000000"
 preserveAspectRatio="xMidYMid meet">
<metadata>
Created by potrace 1.16, written by Peter Selinger 2001-2019
</metadata>
<g transform="translate(0.000000,116.000000) scale(0.100000,-0.100000)"
fill="#000000" stroke="none">
<path d="M1290 1150 c-87 -7 -188 -30 -265 -60 -16 -6 -73 -14 -126 -17 -76
-5 -108 -2 -148 11 -144 47 -339 62 -431 34 -76 -24 -96 -32 -118 -51 -30 -27
-28 -34 12 -41 38 -7 230 -99 240 -115 4 -5 -8 -18 -26 -27 -56 -29 -161 -102
-203 -141 -70 -65 -174 -199 -201 -257 -25 -54 -25 -56 -8 -92 39 -83 243
-216 372 -243 29 -6 79 -11 112 -11 32 0 62 -5 66 -11 3 -6 -17 -35 -46 -64
-47 -48 -50 -54 -32 -59 11 -4 60 -4 108 -1 126 10 298 73 349 130 6 6 51 45
100 87 50 42 130 115 179 162 50 47 95 86 102 86 7 0 17 6 21 13 7 11 31 29
84 62 89 55 135 93 174 142 25 32 45 65 45 74 0 8 5 20 10 25 17 17 23 128 10
190 -11 54 -34 101 -72 153 -15 21 -26 24 -115 26 -54 2 -141 -1 -193 -5z"/>
</g>
</svg>
