<?xml version="1.0" standalone="no"?>
<!DOCTYPE svg PUBLIC "-//W3C//DTD SVG 20010904//EN"
 "http://www.w3.org/TR/2001/REC-SVG-20010904/DTD/svg10.dtd">
<svg version="1.0" xmlns="http://www.w3.org/2000/svg"
 width="454.000000pt" height="366.000000pt" viewBox="0 0 454.000000 366.000000"
 preserveAspectRatio="xMidYMid meet">
<metadata>
Created by potrace 1.16, written by Peter Selinger 2001-2019
</metadata>
<g transform="translate(0.000000,366.000000) scale(0.100000,-0.100000)"
fill="#000000" stroke="none">
<path d="M3070 3654 c-183 -27 -282 -55 -425 -124 -168 -80 -327 -211 -457
-375 -27 -33 -77 -94 -113 -135 -36 -41 -91 -115 -122 -165 -30 -49 -81 -128
-111 -175 -60 -93 -188 -337 -259 -495 -92 -205 -152 -304 -206 -340 -43 -28
-113 -46 -197 -52 -74 -5 -92 -3 -137 17 -65 28 -118 85 -133 142 -18 71 -18
71 -47 63 -72 -18 -123 -97 -144 -224 -10 -61 -16 -75 -41 -93 -86 -60 -204
60 -226 229 -7 54 -9 58 -32 55 -46 -6 -104 -55 -137 -117 -111 -206 -109
-363 8 -593 48 -95 59 -125 57 -157 -3 -39 -4 -40 -44 -43 -36 -3 -47 2 -79
32 -36 35 -37 37 -33 92 5 56 5 56 -29 71 -19 7 -43 11 -53 8 -21 -7 -77 -89
-96 -143 -41 -116 21 -339 138 -497 61 -81 170 -189 241 -237 84 -57 303 -172
367 -193 30 -9 92 -32 136 -51 45 -18 127 -42 181 -53 55 -11 111 -24 124 -30
45 -19 174 -50 252 -60 120 -17 497 -14 627 4 123 18 437 100 533 141 87 37
129 50 231 74 98 23 259 94 512 228 149 78 205 114 309 197 80 65 306 318 372
417 37 57 92 136 121 177 111 151 245 427 323 665 98 300 71 642 -74 931 -71
144 -210 339 -316 446 -183 184 -418 305 -679 350 -103 17 -267 23 -342 13z"/>
</g>
</svg>
