<?xml version="1.0" standalone="no"?>
<!DOCTYPE svg PUBLIC "-//W3C//DTD SVG 20010904//EN"
 "http://www.w3.org/TR/2001/REC-SVG-20010904/DTD/svg10.dtd">
<svg version="1.0" xmlns="http://www.w3.org/2000/svg"
 width="337.000000pt" height="338.000000pt" viewBox="0 0 337.000000 338.000000"
 preserveAspectRatio="xMidYMid meet">
<metadata>
Created by potrace 1.16, written by Peter Selinger 2001-2019
</metadata>
<g transform="translate(0.000000,338.000000) scale(0.100000,-0.100000)"
fill="#000000" stroke="none">
<path d="M1962 3369 c-127 -21 -239 -105 -298 -224 l-36 -73 -317 -5 c-293 -3
-322 -5 -391 -26 -227 -69 -343 -196 -404 -446 -24 -94 -56 -281 -71 -405 -4
-30 -22 -140 -42 -245 -32 -175 -44 -320 -28 -345 3 -6 -4 -10 -18 -10 -37 0
-117 -30 -172 -65 -66 -42 -111 -95 -149 -175 l-31 -65 0 -184 0 -184 160 -96
c88 -53 176 -103 195 -111 19 -7 48 -22 64 -33 20 -15 53 -22 111 -27 79 -6
83 -8 124 -49 63 -63 155 -118 243 -146 73 -23 94 -25 271 -25 205 0 463 19
617 45 116 20 246 63 363 121 49 24 93 44 98 44 6 0 19 -20 30 -45 11 -25 33
-60 48 -78 19 -22 31 -52 39 -96 9 -53 18 -72 48 -102 20 -21 51 -43 68 -50
17 -7 45 -26 62 -43 18 -17 37 -35 44 -41 7 -5 24 -35 39 -65 28 -59 77 -100
117 -100 13 0 24 -4 24 -10 0 -5 14 -10 30 -10 17 0 30 5 30 10 0 6 10 10 21
10 81 0 267 190 283 289 3 22 15 48 25 58 10 10 26 33 35 50 15 31 15 37 -1
98 -16 61 -16 65 1 84 10 11 20 38 23 60 4 32 17 52 55 91 59 59 98 139 98
200 0 79 -17 118 -81 182 -32 32 -59 66 -59 76 0 9 -10 30 -23 45 -18 22 -35
30 -89 40 l-68 11 0 88 c0 96 -22 179 -64 247 -36 56 -129 136 -188 161 l-53
22 0 196 c-1 108 -2 222 -3 252 -2 30 0 150 3 266 l7 210 -32 95 c-50 147 -84
203 -190 310 -69 69 -114 105 -165 131 -145 75 -286 105 -403 87z"/>
</g>
</svg>
