<svg xmlns="http://www.w3.org/2000/svg" viewBox="0 0 414.82 212.94">
  <g id="Слой_2" data-name="Слой 2">
    <g id="Слой_1-2" data-name="Слой 1">
      <path d="M199.08,211.64c-25.13.64-49.16-5-72.76-12.91a113,113,0,0,1-18.28-8C84.72,178,62.93,163,44,144.21,23.82,124.15,11.76,99.72,5,72.26a171.73,171.73,0,0,1-4-59A33,33,0,0,1,1.6,9.37C3.65.12,4.87-.92,14.53.54c13.16,2,26.2,4.74,39.39,6.49,34,4.5,65.62,16.83,97.89,27.28,14.13,4.57,28.92,7.44,44.09,7.2,22.49-.36,45,.23,67.48-.7,12.24-.5,24.35-3.6,36.58-4.94,7.74-.84,15.59-.58,23.39-.84a20,20,0,0,0,4.46-.38c25.9-7,51.68-14.4,75.23-27.81a48,48,0,0,1,4.35-2.46c1.72-.74,4.35-2.2,5.18-1.55,1.38,1.07,2.27,3.59,2.25,5.49-.34,29.36-3.91,58.38-15.68,85.4-5.63,13-14.52,24.64-22.95,36.17-16.29,22.27-37.58,39.32-61.45,52.57-12.34,6.85-26.38,10.83-39.93,15.27a304.81,304.81,0,0,1-35.65,9.47c-13.16,2.59-26.57,3.88-39.88,5.74Z"/>
    </g>
  </g>
</svg>
