<svg xmlns="http://www.w3.org/2000/svg" viewBox="0 0 315.11 207.19">
  <g id="Слой_2" data-name="Слой 2">
    <g id="Слой_1-2" data-name="Слой 1">
      <path d="M315.11,50c0,20.7-2.58,37.5-7.63,53.77-5.58,18-16.74,32.73-31.13,44.42-16.25,13.2-33.55,25.09-50.42,37.52-1.6,1.18-3.44,2.05-5,3.27-28.26,22.08-59,22.18-91.19,10.58a75.47,75.47,0,0,0-15.43-3.86c-15.81-2.1-28.94-10.18-41.21-19.25-31.77-23.49-55.15-53.54-66.4-91.85C.65,64-1.89,42.7,1.54,21.32,2.61,14.66,6.4,8.38,9.37,2.12,10,.9,12.63-.2,14.13,0c14,2.17,28,4.34,41.83,7.19,5.61,1.16,10.8,4.22,16.31,6A456.16,456.16,0,0,0,140.08,30c29.14,4.87,58.41,4,87.47,1,11.4-1.16,22.5-6.87,33.29-11.51,5.18-2.23,9.35-6.8,14-10.34,2.48-1.91,4.69-5,7.43-5.59a17.48,17.48,0,0,1,16.08,5c6.54,6.39,11.62,13.9,13.82,22.78C313.91,38.54,314.51,46.05,315.11,50Z"/>
    </g>
  </g>
</svg>
