<?xml version="1.0" standalone="no"?>
<!DOCTYPE svg PUBLIC "-//W3C//DTD SVG 20010904//EN"
 "http://www.w3.org/TR/2001/REC-SVG-20010904/DTD/svg10.dtd">
<svg version="1.0" xmlns="http://www.w3.org/2000/svg"
 width="407.000000pt" height="252.000000pt" viewBox="0 0 407.000000 252.000000"
 preserveAspectRatio="xMidYMid meet">
<metadata>
Created by potrace 1.16, written by Peter Selinger 2001-2019
</metadata>
<g transform="translate(0.000000,252.000000) scale(0.100000,-0.100000)"
fill="#000000" stroke="none">
<path d="M315 2506 c-90 -39 -224 -261 -268 -446 -41 -167 -49 -262 -45 -483
4 -187 7 -211 36 -319 59 -220 121 -356 239 -526 90 -129 171 -208 307 -302
11 -8 41 -30 66 -50 60 -48 130 -87 280 -155 179 -81 391 -133 636 -154 67 -6
139 -17 162 -25 80 -29 249 -48 361 -42 283 15 377 30 619 103 203 60 292 95
397 152 38 21 98 51 133 65 68 29 277 150 287 166 4 6 32 29 63 52 77 57 173
149 225 217 23 31 62 81 86 111 61 76 105 175 137 310 25 106 28 135 31 365 4
234 2 260 -22 400 -14 83 -27 171 -29 196 -4 55 -26 100 -63 129 l-27 21 -60
-59 c-71 -69 -130 -109 -206 -141 -30 -13 -74 -37 -98 -53 -76 -52 -264 -130
-347 -143 -22 -4 -78 -19 -125 -35 -225 -76 -381 -92 -876 -92 -227 0 -378 4
-390 10 -10 5 -93 24 -184 42 -294 57 -643 161 -785 233 -72 36 -103 63 -294
254 -118 117 -215 213 -215 213 -1 -1 -15 -7 -31 -14z"/>
</g>
</svg>
