<?xml version="1.0" standalone="no"?>
<!DOCTYPE svg PUBLIC "-//W3C//DTD SVG 20010904//EN"
 "http://www.w3.org/TR/2001/REC-SVG-20010904/DTD/svg10.dtd">
<svg version="1.0" xmlns="http://www.w3.org/2000/svg"
 width="345.000000pt" height="244.000000pt" viewBox="0 0 345.000000 244.000000"
 preserveAspectRatio="xMidYMid meet">
<metadata>
Created by potrace 1.16, written by Peter Selinger 2001-2019
</metadata>
<g transform="translate(0.000000,244.000000) scale(0.100000,-0.100000)"
fill="#000000" stroke="none">
<path d="M389 2430 c-14 -4 -51 -24 -82 -43 -44 -28 -68 -55 -110 -119 -97
-152 -114 -189 -146 -318 -43 -178 -51 -237 -51 -391 0 -138 25 -303 66 -434
19 -60 112 -238 164 -315 84 -124 330 -370 435 -435 17 -10 41 -29 55 -41 14
-12 72 -47 130 -77 108 -57 246 -101 350 -112 97 -10 293 -57 347 -82 68 -32
243 -62 363 -63 176 0 324 40 449 122 41 26 78 48 83 48 5 0 38 17 73 37 35
21 125 74 200 117 217 127 356 256 549 510 72 95 108 163 153 293 25 73 27 91
31 298 6 283 -4 342 -86 535 -39 93 -103 195 -132 210 -51 27 -98 1 -243 -137
-105 -99 -179 -151 -267 -186 -72 -28 -190 -62 -260 -73 -69 -11 -754 -8 -776
4 -11 5 -93 24 -184 42 -161 31 -429 100 -540 138 -77 27 -206 91 -262 130
-47 32 -84 79 -127 157 -12 22 -33 55 -46 74 -14 19 -25 45 -25 57 0 50 -48
73 -111 54z"/>
</g>
</svg>
